<svg width="200" height="200" viewBox="0 0 200 200" fill="none" xmlns="http://www.w3.org/2000/svg">
<path d="M100 200C155.228 200 200 155.228 200 100C200 44.7715 155.228 0 100 0C44.7715 0 0 44.7715 0 100C0 155.228 44.7715 200 100 200Z" fill="white"/>
<path fill-rule="evenodd" clip-rule="evenodd" d="M91.5755 0.34216C48.676 3.82366 13.2716 33.9513 2.5998 76.0577C-0.171152 86.9931 -0.842661 105.936 1.1467 117.057C8.66697 159.082 39.9778 190.594 82.2388 198.669C91.3364 200.408 108.069 200.449 117.524 198.756C137.269 195.22 154.772 186.29 169.254 172.364C184.306 157.89 193.933 140.607 198.174 120.44C200.412 109.8 200.625 91.9915 198.635 81.8062C188.671 30.7896 143.157 -3.84396 91.5755 0.34216ZM48.7216 68.6964V86.0796L52.7499 85.5454C66.9899 83.6585 78.5385 73.4866 82.253 59.5614C82.8294 57.4012 83.3051 54.662 83.3098 53.4735L83.3192 51.3133H48.7216V68.6964ZM106.638 52.8647C94.7026 56.6738 85.6805 66.8771 83.3523 79.1998C82.7492 82.3954 82.5368 95.2962 82.6941 119.262L82.9261 154.611L100.028 154.823L117.131 155.035V85.8769H150.942V51.3133L131.088 51.3557C113.947 51.3918 110.605 51.5984 106.638 52.8647Z" fill="#1A5AFF"/>
</svg>
