<svg width="318" height="318" viewBox="0 0 318 318" fill="none" xmlns="http://www.w3.org/2000/svg">
<g clip-path="url(#clip0_133:14)">
<path d="M159 259C214.228 259 259 214.228 259 159C259 103.772 214.228 59 159 59C103.772 59 59 103.772 59 159C59 214.228 103.772 259 159 259Z" fill="white"/>
<path fill-rule="evenodd" clip-rule="evenodd" d="M0 159V318L159.058 317.942L318.117 317.883L318.176 158.942L318.234 0H0V159ZM0.11621 159.117C0.11621 246.567 0.142866 282.307 0.175368 238.539C0.207869 194.771 0.207869 123.221 0.175368 79.5393C0.142866 35.8568 0.11621 71.6669 0.11621 159.117ZM121.822 119.803V147.012L123.283 147.535C127.151 148.918 131.263 151.639 134.405 154.892C136.911 157.488 138.333 159.457 139.845 162.426C142.096 166.849 143.099 171.123 143.099 176.303C143.099 179.891 142.688 182.644 141.683 185.778C138.906 194.45 131.918 201.782 123.283 205.086L121.822 205.645V225.406H152.45L152.51 206.992L152.57 188.579L168.821 188.446C179.643 188.358 185.597 188.222 186.645 188.039C196.951 186.238 204.612 182.532 211.527 176.002C218.294 169.611 222.985 161.267 224.897 152.219C225.755 148.161 225.982 145.68 225.977 140.411C225.971 134.852 225.655 131.97 224.551 127.442C220.579 111.149 207.673 98.1297 191.535 94.1359C185.352 92.606 185.151 92.5981 151.927 92.596L121.822 92.5941V119.803ZM152.332 117.659C152.268 117.826 152.242 128.276 152.276 140.879L152.336 163.793L162.858 163.864C174.708 163.943 177.365 163.775 180.602 162.738C187.139 160.644 192.32 154.989 194.211 147.884C195.282 143.859 195.324 137.728 194.306 133.743C192.299 125.876 186.79 120.139 179.226 118.036C177.42 117.534 176.925 117.513 164.902 117.435C154.811 117.369 152.426 117.411 152.332 117.659V117.659ZM102.537 154.576C101.639 154.7 99.8751 155.153 98.6172 155.584C91.8297 157.908 86.6571 163.326 84.4821 170.39C83.8968 172.291 83.8494 172.751 83.8494 176.537C83.8494 180.34 83.8949 180.777 84.4947 182.733C86.8559 190.433 92.7975 196.094 100.617 198.094C102.952 198.69 107.542 198.797 110.014 198.312C113.214 197.684 116.749 196.063 119.43 193.996C128.429 187.055 130.592 174.021 124.336 164.427C123.053 162.458 120.233 159.515 118.507 158.342C114.017 155.29 107.868 153.84 102.537 154.576" fill="#FF3165"/>
</g>
<defs>
<clipPath id="clip0_133:14">
<rect width="318" height="318" rx="159" fill="white"/>
</clipPath>
</defs>
</svg>
