<svg width="200" height="200" viewBox="0 0 200 200" fill="none" xmlns="http://www.w3.org/2000/svg">
<path d="M100 200C155.228 200 200 155.228 200 100C200 44.7715 155.228 0 100 0C44.7715 0 0 44.7715 0 100C0 155.228 44.7715 200 100 200Z" fill="white"/>
<path d="M170.714 29.3C151.817 10.4 126.714 0 100.01 0C44.8604 0 0 44.86 0 100C0 155.14 44.8604 200 100.01 200C126.714 200 151.837 189.6 170.714 170.7C189.611 151.8 200 126.7 200 100C200 73.3 189.611 48.18 170.714 29.3ZM100.01 193.08C48.6838 193.08 6.92623 151.32 6.92623 100C6.92623 48.68 48.6838 6.92 100.01 6.92C151.336 6.92 193.094 48.68 193.094 100C193.094 151.32 151.336 193.08 100.01 193.08Z" fill="black"/>
<path d="M132.84 102.36C126.434 96.64 118.046 92.82 109.919 89.12L109.859 89.1C95.526 82.56 83.1348 76.9 84.0156 63.52C84.3959 58.42 88.0993 55.34 91.142 53.68C94.5651 51.8 99.1092 50.68 103.313 50.68C103.813 50.68 104.314 50.7 104.794 50.72C117.025 51.54 126.674 56.72 136.102 67.48L136.663 68.14L137.324 67.58L141.007 64.38L141.667 63.8L141.087 63.14C130.578 51.1 119.167 45.04 105.215 44.1C104.614 44.04 103.974 44.02 103.273 44.02C102.853 44.02 102.392 44.02 101.912 44.04H101.311C92.1629 44.04 82.1339 47.04 74.507 52.08C65.3988 58.1 60.2942 66.38 60.1541 75.4C59.7938 97.34 77.75 104.72 93.5842 111.26L93.6242 111.28L93.7844 111.34C107.797 117.14 119.888 122.14 119.628 135.54C119.508 144.38 106.856 149.26 98.1683 149.26H97.808H96.9472V149.28C83.9956 148.9 72.4252 143.32 62.5563 132.74L61.9557 132.1L61.3152 132.68L57.7319 136L57.0914 136.6L57.6919 137.24C68.902 149.3 82.7344 155.78 97.7079 155.96H98.3885C108.057 155.96 118.567 153.36 126.494 148.98C136.423 143.56 142.208 135.66 142.809 126.74C143.489 116.94 140.226 108.96 132.84 102.36ZM86.3577 83.28C92.0628 88.16 99.7898 91.66 107.257 95.04L107.397 95.1C115.304 98.74 122.79 102.18 128.215 106.96C134.221 112.24 136.763 118.36 136.223 126.22C135.722 134 129.937 139.2 124.672 142.34C125.693 140.26 126.254 138 126.314 135.6C126.434 127.52 123.331 121.06 116.805 115.82C111.1 111.24 103.533 108.14 96.2066 105.12C80.9729 98.86 66.5799 92.94 66.8401 75.46C66.9202 68.74 70.9638 62.38 78.2304 57.56C78.4706 57.4 78.7108 57.24 78.9711 57.08C78.1103 58.96 77.6299 60.92 77.5097 62.98C76.9292 71.08 79.8318 77.72 86.3577 83.28Z" fill="black"/>
</svg>
