<svg width="256" height="256" viewBox="0 0 256 256" fill="none" xmlns="http://www.w3.org/2000/svg">
<g clip-path="url(#clip0)">
<path d="M128 256C119.334 256.002 110.691 255.131 102.2 253.4C85.8269 250.046 70.2745 243.501 56.43 234.139C35.8506 220.247 19.7417 200.686 10.055 177.824C6.78332 170.082 4.28614 162.034 2.59999 153.8C-0.867275 136.777 -0.867275 119.23 2.59999 102.207C5.95349 85.834 12.498 70.2816 21.86 56.437C35.7519 35.8565 55.3144 19.7464 78.177 10.059C85.9188 6.78586 93.9658 4.28733 102.2 2.6C119.223 -0.86746 136.77 -0.86746 153.793 2.6C170.166 5.95344 185.718 12.4979 199.563 21.86C220.142 35.7519 236.251 55.314 245.938 78.176C249.212 85.9181 251.712 93.9653 253.4 102.2C256.867 119.223 256.867 136.77 253.4 153.793C250.047 170.166 243.502 185.719 234.14 199.563C220.247 220.142 200.686 236.251 177.824 245.938C170.082 249.212 162.035 251.711 153.8 253.4C145.309 255.131 136.666 256.002 128 256V256ZM128 13.713C120.264 13.7113 112.547 14.4892 104.967 16.035C90.3478 19.0289 76.4613 24.8724 64.1 33.232C45.728 45.637 31.3473 63.1033 22.7 83.515C19.7777 90.4284 17.5472 97.6141 16.041 104.967C12.9452 120.166 12.9452 135.833 16.041 151.032C19.036 165.651 24.8806 179.537 33.241 191.898C45.6449 210.272 63.1109 224.655 83.523 233.305C90.4368 236.227 97.6228 238.457 104.976 239.963C120.175 243.059 135.842 243.059 151.041 239.963C165.66 236.969 179.547 231.125 191.907 222.763C210.276 210.358 224.654 192.894 233.3 172.485C236.222 165.571 238.453 158.385 239.959 151.032C243.055 135.833 243.055 120.166 239.959 104.967C236.964 90.3483 231.119 76.4625 222.759 64.102C210.357 45.7305 192.894 31.3492 172.485 22.7C165.571 19.7779 158.385 17.5474 151.032 16.041C143.452 14.4936 135.736 13.714 128 13.714V13.713Z" fill="url(#paint0_linear)"/>
<path d="M128 228C183.228 228 228 183.228 228 128C228 72.7715 183.228 28 128 28C72.7715 28 28 72.7715 28 128C28 183.228 72.7715 228 128 228Z" fill="white"/>
<path fill-rule="evenodd" clip-rule="evenodd" d="M119.575 28.3422C76.676 31.8237 41.2716 61.9513 30.5998 104.058C27.8288 114.993 27.1573 133.936 29.1467 145.057C36.667 187.082 67.9778 218.594 110.239 226.669C119.336 228.408 136.069 228.449 145.524 226.756C165.269 223.22 182.772 214.29 197.254 200.364C212.306 185.89 221.933 168.607 226.174 148.44C228.412 137.8 228.625 119.992 226.635 109.806C216.671 58.7896 171.157 24.156 119.575 28.3422ZM76.7216 96.6964V114.08L80.7499 113.545C94.9899 111.659 106.538 101.487 110.253 87.5614C110.829 85.4012 111.305 82.662 111.31 81.4735L111.319 79.3133H76.7216V96.6964ZM134.638 80.8647C122.703 84.6738 113.681 94.8771 111.352 107.2C110.749 110.395 110.537 123.296 110.694 147.262L110.926 182.611L128.028 182.823L145.131 183.035V113.877H178.942V79.3133L159.088 79.3557C141.947 79.3918 138.605 79.5984 134.638 80.8647Z" fill="#1A5AFF"/>
</g>
<defs>
<linearGradient id="paint0_linear" x1="215.808" y1="34.5595" x2="52.736" y2="226.816" gradientUnits="userSpaceOnUse">
<stop stop-color="#B6509E"/>
<stop offset="1" stop-color="#2EBAC6"/>
</linearGradient>
<clipPath id="clip0">
<rect width="256" height="256.001" fill="white"/>
</clipPath>
</defs>
</svg>
