<svg width="200" height="200" viewBox="0 0 200 200" fill="none" xmlns="http://www.w3.org/2000/svg">
<path d="M100 200C155.228 200 200 155.228 200 100C200 44.7715 155.228 0 100 0C44.7715 0 0 44.7715 0 100C0 155.228 44.7715 200 100 200Z" fill="black"/>
<path d="M103.244 31.25V65.3562L132.856 48.325L103.244 31.25Z" fill="#00D4D5"/>
<path opacity="0.9" d="M132.856 48.325V82.4312L162.463 65.3562L132.856 48.325Z" fill="#00D4D5"/>
<path opacity="0.8" d="M103.244 65.3563V99.4625L132.856 82.4313L103.244 65.3563ZM132.856 82.4375V116.537L162.462 99.4625L132.856 82.4375Z" fill="#00D4D5"/>
<path opacity="0.8" d="M103.244 99.4625V133.569L132.856 116.538L103.244 99.4625Z" fill="#00D4D5"/>
<path d="M132.856 116.537V150.644L162.463 133.569L132.856 116.537Z" fill="#00D4D5"/>
<path opacity="0.4" d="M26.7063 64.2063V98.3126L56.3188 81.2376L26.7063 64.2063Z" fill="#00D4D5"/>
<path opacity="0.2" d="M64.0625 76.8875V110.994L93.625 93.9625L64.0625 76.8875Z" fill="#00D4D5"/>
<path opacity="0.3" d="M42.1124 98.4562V132.562L71.7186 115.487L42.1124 98.4562Z" fill="#00D4D5"/>
<path opacity="0.9" d="M61.6249 124.194V158.3L91.1874 141.225L61.6249 124.194Z" fill="#00D4D5"/>
<path opacity="0.7" d="M103 138.875V172.988L132.562 155.906L103 138.875Z" fill="#00D4D5"/>
<path opacity="0.9" d="M68.9938 60.0437V94.1562L98.5563 77.125L68.9938 60.0437Z" fill="#00D4D5"/>
<path opacity="0.8" d="M103.244 31.25V65.3562L73.6313 48.325L103.244 31.25Z" fill="#00D4D5"/>
<path opacity="0.6" d="M68.9937 45.75V79.85L39.3749 62.775L68.9937 45.75Z" fill="#00D4D5"/>
<path opacity="0.6" d="M98.6063 62.6249V96.7374L68.9938 79.6562L98.6063 62.6249Z" fill="#00D4D5"/>
<path opacity="0.95" d="M63.9249 76.8875V110.994L34.3124 93.9625L63.9249 76.8875Z" fill="#00D4D5"/>
<path opacity="0.6" d="M103.244 99.4625V133.569L73.6813 116.538L103.244 99.4625Z" fill="#00D4D5"/>
<path opacity="0.55" d="M42.1125 107.406V141.512L12.5 124.431L42.1125 107.406Z" fill="#00D4D5"/>
<path d="M162.463 65.3563V99.4625L132.856 82.4313L162.463 65.3563Z" fill="#00D4D5"/>
<path opacity="0.95" d="M132.856 82.4375V116.538L103.244 99.4625L132.856 82.4375Z" fill="#00D4D5"/>
<path opacity="0.9" d="M162.463 99.4625V133.569L132.856 116.538L162.463 99.4625Z" fill="#00D4D5"/>
<path opacity="0.7" d="M132.856 116.537V150.644L103.244 133.569L132.856 116.537Z" fill="#00D4D5"/>
<path opacity="0.4" d="M96.6874 130.75V164.856L67.0811 147.825L96.6874 130.75Z" fill="#00D4D5"/>
<path d="M132.856 48.325V82.4312L103.244 65.3562L132.856 48.325Z" fill="#00D4D5"/>
</svg>
