<svg id="logo_small" width="32" height="32" viewBox="0 0 32 32" fill="none" xmlns="http://www.w3.org/2000/svg">
<path d="M7.95859 17.4587L8.75859 11.4337L1.80859 6.60872L8.1586 8.75872L9.65859 6.45872L15.1336 3.05872L27.2086 9.70872L27.8336 19.8587L22.4586 27.3337L18.2086 27.9837L20.4086 23.9587V20.0837L18.8086 17.0587L17.1836 15.9837L14.6836 18.5587V21.2837L12.7336 23.1087L10.2586 23.4087L9.15859 24.0337L7.35859 23.4587L6.60859 20.7587L7.95859 18.8587V17.4587Z" fill="white"/>
<path d="M19.057 6.55871C17.732 6.28371 16.2821 6.35871 16.2821 6.35871C16.2821 6.35871 15.8071 8.55871 12.8571 9.13371C12.8821 9.13371 16.757 10.4587 19.057 6.55871Z" fill="#94A6C3"/>
<path d="M20.257 26.5087C21.857 25.2587 23.057 23.5337 23.607 21.5837C23.632 21.5087 23.857 21.3837 24.007 21.2837C24.257 21.1337 24.507 21.0087 24.557 20.8087C24.657 20.2337 24.707 19.6337 24.707 19.0337C24.707 18.8087 24.482 18.5837 24.257 18.3587C24.082 18.2087 23.907 18.0337 23.907 17.9087C23.657 15.6337 22.607 13.5087 20.932 11.9587L20.757 12.1337C22.382 13.6587 23.432 15.7337 23.657 17.9337C23.682 18.1337 23.882 18.3337 24.082 18.5337C24.257 18.6837 24.457 18.9087 24.457 19.0087C24.457 19.5837 24.407 20.1587 24.307 20.7337C24.282 20.8337 24.057 20.9337 23.882 21.0337C23.632 21.1587 23.407 21.2837 23.357 21.4837C22.757 23.6087 21.382 25.4587 19.557 26.6587C19.882 25.9587 20.907 23.6837 21.457 22.5337L21.357 18.8337L18.182 15.7587L16.382 16.0087L14.407 19.2087C14.407 19.2087 15.332 20.3837 14.032 21.7587C12.757 23.1087 11.757 23.4087 11.757 23.4087L10.832 22.9087C11.107 22.5587 11.657 22.0337 12.082 21.6837C12.807 21.0837 13.532 21.0337 13.532 20.3837C13.557 19.0337 12.107 19.4087 12.107 19.4087L11.582 19.9087L11.357 21.7587L10.257 23.1337L10.132 23.1087L8.33203 22.7087C8.33203 22.7087 9.43203 22.1337 9.60703 21.4837C9.78203 20.8587 9.25703 18.7837 9.23203 18.6587C9.25703 18.6837 9.75703 19.1087 9.98203 19.8087C10.382 18.7087 10.907 17.6587 11.057 17.5587C11.207 17.4587 13.232 16.3837 13.232 16.3837L12.557 18.1587L13.057 17.8837L14.257 14.9337C14.257 14.9337 15.432 14.3587 16.307 14.3587C17.882 14.3337 20.207 12.4087 19.157 8.95873C19.457 9.08373 24.657 11.6837 25.557 16.7837C26.232 20.7087 24.007 24.3837 20.257 26.5087Z" fill="#94A6C3"/>
<path d="M14.308 7.10873C14.883 6.43373 14.658 5.43373 14.658 5.43373L12.983 7.90872C12.958 7.90872 13.583 7.93372 14.308 7.10873Z" fill="#060C13"/>
<path d="M8.68301 20.6338L8.88301 19.6338C8.88301 19.6338 8.05801 21.0838 7.98301 21.2838C7.90801 21.5088 8.03301 21.9088 8.35801 21.8838C8.68301 21.8588 9.08301 21.3838 9.08301 21.0338C9.08301 20.5838 8.68301 20.6338 8.68301 20.6338Z" fill="#060C13"/>
<path d="M23.533 4.73375C23.533 4.73375 24.783 4.78375 26.083 4.93375C23.158 2.63375 20.383 1.95875 18.133 1.95875C15.033 1.95875 12.933 3.23375 12.808 3.30875L13.783 1.75875C13.783 1.75875 9.883 1.38375 8.508 5.50875C8.158 4.63375 7.833 3.35875 7.833 3.35875C7.833 3.35875 5.808 5.13375 6.758 8.08375C4.433 7.23375 1.108 6.05875 0.983 6.03375C0.808 6.00875 0.758 6.08375 0.758 6.08375C0.758 6.08375 0.708 6.15875 0.858 6.28375C1.133 6.50875 6.383 10.3838 7.533 11.1338C7.283 12.0338 7.283 12.4588 7.533 12.8838C7.883 13.4588 7.908 13.7588 7.858 14.1838C7.808 14.6088 7.358 18.2838 7.258 18.7338C7.158 19.1838 6.108 20.7838 6.158 21.2588C6.208 21.7338 6.858 23.7588 7.433 23.9838C7.858 24.1338 8.908 24.4588 9.608 24.4588C9.858 24.4588 10.083 24.4088 10.183 24.3088C10.608 23.9338 10.733 23.8588 11.033 23.8588C11.058 23.8588 11.083 23.8588 11.108 23.8588C11.233 23.8588 11.383 23.8838 11.558 23.8838C11.958 23.8838 12.483 23.8088 12.858 23.4588C13.408 22.9088 14.358 22.1588 14.658 21.8088C15.033 21.3338 15.233 20.6838 15.133 20.0338C15.058 19.4338 15.383 18.9088 15.758 18.3838C16.233 17.7588 17.108 16.6338 17.108 16.6338C18.833 17.9338 19.908 19.9088 19.908 22.1088C19.908 26.0088 16.508 29.1588 12.308 29.1588C11.658 29.1588 11.033 29.0838 10.408 28.9338C12.333 29.6088 13.958 29.8338 15.283 29.8338C18.108 29.8338 19.608 28.8088 19.608 28.8088C19.608 28.8088 19.083 29.4838 18.233 30.2588C18.258 30.2588 18.258 30.2588 18.258 30.2588C22.933 29.6088 25.208 25.7588 25.208 25.7588C25.208 25.7588 25.033 27.0088 24.808 27.8588C31.033 23.1838 29.983 17.3338 29.958 17.1338C30.008 17.2088 30.633 17.9588 30.958 18.3588C31.958 8.05875 23.533 4.73375 23.533 4.73375ZM13.958 21.1838C13.858 21.3088 13.433 21.6838 13.133 21.9588C12.833 22.2338 12.508 22.5088 12.258 22.7588C12.158 22.8588 11.958 22.9088 11.658 22.9088C11.558 22.9088 11.458 22.9088 11.383 22.9088C11.333 22.9088 11.283 22.9088 11.233 22.9088C11.183 22.9088 11.158 22.9088 11.133 22.9088C11.058 22.9088 10.983 22.9088 10.908 22.9088C11.283 22.4088 12.383 21.2588 12.758 21.0088C13.208 20.7088 13.433 20.4088 13.158 19.8838C12.883 19.3588 12.158 19.4838 12.158 19.4838C12.158 19.4838 12.583 19.3088 12.958 19.3088C12.483 19.1838 11.883 19.3088 11.608 19.5838C11.308 19.8588 11.358 20.8338 11.233 21.4588C11.108 22.1088 10.683 22.4338 10.033 23.0338C9.683 23.3588 9.433 23.4588 9.233 23.4588C8.808 23.3838 8.308 23.2588 7.958 23.1338C7.708 22.8088 7.333 21.7338 7.233 21.2838C7.308 21.0338 7.608 20.5088 7.758 20.2088C8.058 19.6338 8.233 19.3088 8.283 19.0088C8.383 18.5838 8.708 15.9588 8.833 14.8588C9.158 15.2838 9.608 15.9838 9.508 16.4338C10.233 15.4088 9.708 14.4088 9.458 14.0088C9.233 13.6088 8.933 12.8088 9.183 11.9588C9.433 11.1088 10.333 8.75875 10.333 8.75875C10.333 8.75875 10.633 9.28375 11.058 9.18375C11.483 9.08375 14.908 3.93375 14.908 3.93375C14.908 3.93375 15.833 5.95875 14.858 7.43375C13.858 8.90875 12.883 9.18375 12.883 9.18375C12.883 9.18375 14.258 9.43375 15.533 8.50875C16.058 9.73375 16.558 11.0088 16.583 11.1838C16.508 11.3588 15.508 13.7588 15.408 13.9088C15.358 13.9588 15.008 14.0588 14.758 14.1088C14.333 14.2338 14.083 14.3088 13.983 14.3838C13.808 14.5338 13.008 16.7338 12.633 17.8088C12.183 17.9338 11.733 18.1838 11.408 18.6838C11.583 18.5588 12.133 18.4838 12.533 18.4338C12.883 18.4088 13.958 18.9838 14.233 20.0588C14.233 20.0838 14.233 20.0838 14.233 20.1088C14.283 20.5088 14.158 20.8838 13.958 21.1838ZM11.608 21.4838C11.833 21.1588 11.808 20.6088 11.833 20.4338C11.858 20.2588 11.908 19.9338 12.108 19.8838C12.308 19.8338 12.783 19.9088 12.783 20.2588C12.783 20.5838 12.433 20.6588 12.183 20.8838C12.008 21.0588 11.658 21.4338 11.608 21.4838ZM21.583 16.7088C21.833 15.4338 21.858 14.3338 21.783 13.4338C22.758 14.7338 23.358 16.3088 23.533 17.9338C23.558 18.1338 23.758 18.3338 23.958 18.5338C24.133 18.6838 24.333 18.8838 24.333 19.0088C24.333 19.5838 24.283 20.1588 24.183 20.7338C24.158 20.8088 23.933 20.9338 23.758 21.0338C23.508 21.1588 23.283 21.2838 23.233 21.4838C22.683 23.4088 21.508 25.1088 19.933 26.3088C22.258 23.8838 23.383 19.8838 21.583 16.7088ZM20.008 26.5338C21.633 25.2838 22.883 23.5338 23.433 21.5588C23.458 21.4838 23.683 21.3588 23.833 21.2588C24.083 21.1338 24.333 20.9838 24.383 20.7838C24.483 20.2088 24.533 19.6088 24.533 19.0088C24.533 18.7838 24.308 18.5588 24.083 18.3338C23.958 18.1838 23.758 18.0088 23.758 17.8838C23.558 16.0588 22.833 14.3338 21.708 12.9088C21.208 9.90875 19.208 8.98375 19.158 8.95875C19.208 9.03375 20.508 10.9088 19.608 13.1088C18.683 15.3338 16.308 14.9838 16.108 15.0088C15.908 15.0088 15.133 16.0088 14.158 17.8588C14.033 17.8088 13.508 17.6838 12.908 17.7838C13.358 16.5338 14.033 14.7588 14.158 14.6088C14.208 14.5588 14.583 14.4588 14.833 14.3838C15.308 14.2588 15.533 14.1838 15.608 14.0838C15.658 14.0088 15.908 13.4338 16.158 12.8338C16.383 12.8338 16.958 12.7838 17.008 12.7588C17.058 12.7088 17.533 11.4838 17.533 11.3338C17.533 11.2088 16.558 8.78375 16.183 7.85875C16.358 7.65875 16.533 7.40875 16.708 7.13375C21.833 7.68375 25.833 12.0338 25.833 17.3088C25.833 21.3588 23.458 24.8838 20.008 26.5338Z" fill="#060C13"/>
<path d="M13.358 13.0337C13.833 12.4837 13.583 11.4587 12.708 11.2837C12.933 10.7587 13.258 9.70874 13.258 9.70874C13.258 9.70874 10.708 13.7087 10.483 13.7837C10.258 13.8587 10.033 12.9837 10.033 12.9837C9.558 14.8087 10.833 15.0587 10.983 14.4837C11.683 14.3087 12.883 13.5587 13.358 13.0337Z" fill="#060C13"/>
<path d="M11.1836 14.0088L12.4836 11.7838C12.4836 11.7838 13.2336 12.1588 12.8586 12.7588C12.3836 13.4588 11.1836 14.0088 11.1836 14.0088Z" fill="#FFD923"/>
<path d="M27.2564 24.3089C26.8814 24.8089 26.4564 25.3339 25.9564 25.8339C29.1814 19.6339 26.1064 13.9589 25.9814 13.7339C26.2064 13.9589 26.4314 14.2089 26.6314 14.4339C29.1064 17.1839 29.4064 21.3089 27.2564 24.3089Z" fill="#D82122"/>
<path d="M30.2564 16.3339C29.1314 13.3089 27.5314 10.7339 24.0064 8.40888C20.6064 6.15888 16.9564 6.33388 16.7564 6.35888C16.7314 6.35888 16.7064 6.35888 16.7064 6.35888C16.8314 6.30888 16.9564 6.28388 17.0814 6.25888C17.8564 6.00888 18.8564 5.80888 19.8564 5.68388C22.5064 5.30888 25.1814 6.20888 27.0064 8.13388C27.0314 8.15888 27.0314 8.15889 27.0564 8.18388C29.1314 10.3839 30.2064 13.1339 30.2564 16.3339Z" fill="#D82122"/>
<path d="M23.2064 3.95895C19.4814 3.25895 17.0814 3.60895 15.3564 4.25895C15.3064 4.05895 15.1314 3.65895 14.9814 3.33395C14.4564 3.95895 13.9064 4.70895 13.5564 5.18395C12.6064 5.83395 12.2064 6.45895 12.2064 6.45895C12.7564 4.58395 14.3564 3.18395 16.3064 2.83395C16.8564 2.73395 17.4564 2.68395 18.1064 2.68395C19.8314 2.70895 21.5564 3.13395 23.2064 3.95895Z" fill="#D82122"/>
<path d="M9.43138 8.75895C6.50638 8.65895 7.48138 5.25895 7.53138 5.05895C7.53138 5.08395 7.73138 7.73395 9.43138 8.75895Z" fill="#D82122"/>
<path d="M12.3064 2.63391C10.0564 3.98391 10.5064 7.20891 10.5064 7.20891C8.35637 3.93391 12.1314 2.70891 12.3064 2.63391Z" fill="#D82122"/>
<path d="M8.61016 9.65877C8.76016 9.78377 8.91016 10.0088 8.73516 10.3338C8.63516 10.5088 8.48516 10.4838 8.26016 10.3838C7.96016 10.2338 6.16016 9.18376 4.53516 8.10876C6.38516 8.75876 8.26016 9.45876 8.56016 9.60877C8.56016 9.60877 8.58516 9.63377 8.61016 9.65877Z" fill="white"/>
</svg>
