<svg width="200" height="200" viewBox="0 0 200 200" fill="none" xmlns="http://www.w3.org/2000/svg">
<path d="M100 200C155.228 200 200 155.228 200 100C200 44.7715 155.228 0 100 0C44.7715 0 0 44.7715 0 100C0 155.228 44.7715 200 100 200Z" fill="#288DC0"/>
<path d="M100 175C141.421 175 175 141.421 175 100C175 58.5786 141.421 25 100 25C58.5786 25 25 58.5786 25 100C25 141.421 58.5786 175 100 175Z" fill="white"/>
<path fill-rule="evenodd" clip-rule="evenodd" d="M86.1562 2.13972C82.69 2.57654 73.2253 4.87158 68.9356 6.31496C62.7032 8.41211 52.7258 13.2822 46.9997 17.0216C23.82 32.1614 7.6423 57.2001 3.47323 84.3883C2.83943 88.523 2.84332 110.583 3.47858 114.683C4.96458 124.274 7.6496 132.876 11.9738 141.902C25.1547 169.412 49.3296 188.714 79.3464 195.695C84.7714 196.957 85.4023 196.996 100.262 197C115.39 197.004 115.655 196.987 121.178 195.637C136.831 191.812 149.746 185.6 161.308 176.338C176.219 164.391 187.305 148.234 193.419 129.538C194.912 124.974 197.059 115.332 197.059 113.196C197.059 112.319 197.261 111.819 197.546 111.995C197.866 112.194 198.02 107.734 197.998 98.9535C197.977 91.0477 197.998 94.1375 197.546 90.2375C197.443 89.3543 197.122 87.3034 197.093 85.968C197.044 83.6627 194.893 74.0389 193.419 69.5334C186.268 47.6657 172.806 29.9333 153.768 17.305C144.181 10.9456 133.545 6.42685 121.178 3.45801C115.825 2.17294 114.989 2.11138 101.722 2.02001C94.097 1.96773 87.0926 2.02147 86.1562 2.13972ZM84.2105 54.7453C84.2105 58.5976 84.0826 61.8772 83.9265 62.034C83.7703 62.1909 82.9498 61.9148 82.1024 61.4203C77.0057 58.4461 69.2134 58.195 63.6191 60.8247C47.221 68.5331 46.9107 91.3883 63.0991 99.1187C71.6114 103.184 81.0488 101.425 87.3372 94.6024C93.0672 88.3857 93.4359 86.5803 93.4452 64.7214L93.4525 47.742H84.2105V54.7453ZM113.628 53.5995C108.409 54.3701 102.414 58.4378 99.3974 63.2546C96.9566 67.1518 96.2362 70.1617 96.4517 75.5565C96.62 79.7679 96.8316 80.6992 98.2991 83.694C102.253 91.763 110.061 96.1689 119.179 95.476C124.303 95.0866 128.827 92.7862 132.748 88.5763C136.913 84.103 137.937 81.3061 137.947 74.3717C137.954 69.5236 137.55 68.7875 136.619 66.1282C135.885 64.5504 135.284 63.0899 135.284 62.8828C135.284 62.6751 138.458 62.5368 142.337 62.5754L149.39 62.6448V57.8808L149.39 53.1168L132.731 53.1778C123.567 53.2111 114.972 53.4011 113.628 53.5995ZM112.048 63.9225C105.025 67.4147 103.394 77.1978 108.91 82.7392C114.703 88.5582 123.996 86.9335 127.776 79.4401C130.716 73.6128 127.902 66.1692 121.79 63.604C119.233 62.5305 114.539 62.6844 112.048 63.9225ZM69.1287 68.7203C59.0512 71.7996 57.3915 85.0841 66.433 90.2938C68.4224 91.4401 69.4682 91.7093 71.9441 91.7132C75.5246 91.7186 77.5004 90.992 80.0711 88.7248C83.9669 85.2884 84.9431 79.8158 82.5397 74.8818C81.812 73.3876 80.507 71.6212 79.6402 70.9567C76.6317 68.6519 72.3405 67.7391 69.1287 68.7203ZM3.19257 99.5355C3.19257 106.926 3.26018 109.949 3.34287 106.254C3.42507 102.559 3.42507 96.5124 3.34287 92.817C3.26018 89.1221 3.19257 92.1451 3.19257 99.5355ZM123.732 98.3218C115.831 100.046 109.913 105.885 107.798 114.044C107.221 116.269 107.072 120.377 107.072 134.086V151.329H116.314V144.244C116.314 140.347 116.507 137.159 116.742 137.159C116.977 137.159 118.454 137.752 120.025 138.477C124.077 140.346 130.03 140.626 134.434 139.154C142.331 136.514 147.665 130.359 149.039 122.299C150.118 115.97 147.783 108.789 143.101 104.044C140.075 100.977 136.818 99.2189 132.429 98.2846C128.555 97.4598 127.666 97.4637 123.732 98.3218ZM77.4124 104.194C67.4428 107.01 60.741 117.366 62.3111 127.531C62.5996 129.398 63.3764 132.074 64.0379 133.478C64.6994 134.883 65.2403 136.176 65.2403 136.351C65.2403 136.527 61.9487 136.67 57.9256 136.67H50.6113L50.7509 141.19L50.891 145.71L66.9428 145.84C75.7712 145.911 84.4401 145.769 86.2068 145.523C92.9665 144.584 99.3493 139.782 102.326 133.398C105.182 127.269 104.657 119.045 101.043 113.3C99.163 110.312 95.8286 107.402 92.2136 105.595C89.2595 104.119 88.1841 103.852 84.4309 103.662C81.3976 103.509 79.2676 103.671 77.4124 104.194ZM123.816 108.046C120.17 109.641 117.146 113.561 116.518 117.508C116.102 120.119 117.35 124.226 119.263 126.546C121.603 129.384 124.186 130.531 128.269 130.548C131.265 130.561 132.023 130.371 134.106 129.083C135.463 128.244 137.185 126.58 138.081 125.241C139.512 123.103 139.662 122.534 139.662 119.25C139.662 116.634 139.402 115.115 138.732 113.808C137.52 111.447 135.013 109.061 132.746 108.111C130.545 107.189 125.855 107.155 123.816 108.046ZM79.1085 113.481C76.6511 114.422 73.6592 117.284 72.4894 119.813C70.4829 124.15 71.751 130.132 75.349 133.305C77.7874 135.456 79.8094 136.182 83.3651 136.182C93.3055 136.182 98.4791 124.376 91.858 116.801C88.8573 113.368 83.2294 111.902 79.1085 113.481Z" fill="#288DC0"/>
</svg>
