<svg width="200" height="200" viewBox="0 0 200 200" fill="none" xmlns="http://www.w3.org/2000/svg">
<path d="M100 200C155.228 200 200 155.228 200 100C200 44.7715 155.228 0 100 0C44.7715 0 0 44.7715 0 100C0 155.228 44.7715 200 100 200Z" fill="white"/>
<g clip-path="url(#clip0_103:12)">
<path d="M24.5506 99.9758C24.5506 90.4454 24.5776 80.9144 24.5325 71.3846C24.4855 70.23 24.7345 69.083 25.2557 68.0515C25.7769 67.0208 26.553 66.1401 27.5104 65.4934C50.291 48.8599 73.0659 32.2182 95.8344 15.5684C98.6691 13.4973 101.278 13.4698 104.101 15.531C126.976 32.2302 149.847 48.9353 172.713 65.6464C173.595 66.253 174.31 67.0725 174.791 68.029C175.272 68.9852 175.504 70.0478 175.465 71.118C175.451 90.3519 175.453 109.586 175.471 128.82C175.474 131.362 174.391 133.177 172.375 134.647C149.958 150.995 127.556 167.364 105.169 183.753C103.151 185.231 101.179 186.491 98.5203 185.81C97.5221 185.526 96.5885 185.051 95.772 184.411C73.0465 167.8 50.3182 151.193 27.5869 134.59C25.5044 133.07 24.5162 131.161 24.5302 128.567C24.5817 119.037 24.5506 109.506 24.5506 99.9758V99.9758Z" fill="#050708"/>
<path d="M168.352 75.1858H164.366L160.38 68.2531H164.366L168.352 75.1858ZM103.703 132.729H99.7162L103.702 139.663H107.689L103.703 132.729ZM86.7168 162.888H82.7301L86.7162 169.821H90.7029L86.7168 162.888ZM98.5031 39.8277H94.5164L98.5025 46.7607H102.489L98.5031 39.8277ZM155.526 77.6126H152.06V81.0789H155.526V77.6126ZM136.114 85.2386H132.648V88.7055H136.114V85.2386ZM159.686 85.2386H144.434V88.7055H159.686V85.2386ZM136.807 105.344H126.061V108.811H136.807V105.344ZM123.982 72.0661H120.515V75.5325H123.982V72.0661ZM103.183 81.4256H99.7162V84.892H103.183V81.4256ZM96.2493 81.4256H80.9967V84.892H96.2493V81.4256ZM111.849 71.0261H108.382V82.119H111.849V71.0261ZM86.8899 32.2015H83.4235V47.4541H86.8899V32.2015ZM95.9027 48.8406H92.4363V52.3071H95.9027V48.8406ZM74.064 65.8264H70.5977V73.7996H74.064V65.8264ZM50.1452 94.9448H46.6787V106.384H50.1452V94.9448ZM60.8913 65.4798H57.4248V68.9465H60.8913V65.4798ZM38.7057 98.065H35.2393V101.531H38.7057V98.065ZM77.8771 123.717H74.4107V127.184H77.8771V123.717ZM111.849 108.464H108.382V111.931H111.849V108.464ZM96.596 101.531H93.1297V110.197H96.596V101.531ZM94.5164 129.263H91.0496V142.089H94.5164V129.263ZM68.5176 110.891H53.265V114.357H68.5176V110.891ZM118.089 105.344H114.622V108.811H118.089V105.344ZM66.7843 148.675H63.3179V152.142H66.7843V148.675ZM84.1169 153.875H70.251V157.342H84.1169V153.875ZM58.8114 139.663H49.7985V143.129H58.8114V139.663ZM71.111 139.663L80.3039 133.77L77.5304 131.69L65.0511 139.663V143.129H84.8103V139.663H71.111ZM111.502 50.0474L119.475 62.3599H120.515V57.8535L111.502 43.9876H108.036V63.7465H111.502V50.0474ZM80.9967 105.165L88.97 117.477H90.01V112.971L80.9967 99.1045H77.5304V118.864H80.9967V105.165ZM119.989 158.035L129.181 152.142L126.408 150.062L113.929 158.035V161.502H124.328V158.035H119.989ZM41.6587 81.4256L36.9725 84.5453L39.7457 86.6254L47.7186 81.4256V77.9593H30.3861V81.4256H41.6587ZM66.6175 50.9205L58.8114 55.7736L61.5846 57.8535L72.6773 50.9205V47.4541H62.2779V50.9205H66.6175ZM104.389 123.023L113.582 117.131L110.809 115.051L98.3295 123.023V126.49H118.089V123.023H104.389ZM151.533 122.33L160.726 116.437L157.953 114.357L145.474 122.33V125.797H165.233V122.33H151.533ZM109.769 166.701H106.302V170.168H109.769V166.701ZM101.796 170.168H98.3295V178.141H101.796V170.168ZM152.753 133.77H149.287V137.236H152.753V133.77ZM144.087 106.038H140.621V118.17H144.087V106.038ZM54.9983 65.4798H39.7457V68.9465H54.9983V65.4798ZM81.3434 89.3984H73.024V92.8652H81.3434V89.3984ZM155.526 60.9734H152.06V72.0661H155.526V60.9734ZM144.087 53.0004H127.448V56.1203H144.087V53.0004ZM125.715 46.4141H122.248V49.8806H125.715V46.4141ZM114.622 41.2143H123.982V37.7479H114.622V41.2143ZM86.2029 58.1988V52.9991L80.8236 61.19L75.4443 52.9991V58.1988L80.8236 66.4406L86.2029 58.1988ZM144.44 141.915V136.715L139.061 144.906L133.681 136.715V141.915L139.061 150.156L144.44 141.915ZM65.0572 125.969V120.769L59.678 128.96L54.299 120.769V125.969L59.678 134.211L65.0572 125.969ZM63.279 86.2158H68.4789L60.2879 80.8365L68.4789 75.4572H63.279L55.0372 80.8365L63.279 86.2158ZM92.0896 27.695V31.8548H95.556V29.0816H103.876V38.4411H107.342V27.695L105.609 25.9618H93.8231L92.0896 27.695ZM120.861 116.091V120.25H124.328V117.477H132.648V126.837H136.114V116.091L134.381 114.357H122.595L120.861 116.091ZM154.833 96.6782V100.838H158.299V98.065H166.619V112.971H170.086V96.6782L168.352 94.9448H156.567L154.833 96.6782ZM116.008 85.2386V97.0249L117.742 98.7578H132.301V95.2915H119.129V86.9721H121.902V83.5057H117.742L116.008 85.2386ZM30.3861 113.317V125.103L32.1194 126.837H46.6787V123.37H33.506V115.051H36.2792V111.584H32.1194L30.3861 113.317ZM104.223 160.808V149.022L102.489 147.289H87.9299V150.756H101.102V159.075H98.3295V162.541H102.489L104.223 160.808ZM108.209 102.744V90.9587L106.476 89.2253H91.9166V92.6916H105.089V101.012H102.316V104.478H106.476L108.209 102.744ZM87.5832 73.7996H99.3695L101.102 72.0661V57.5069H97.6361V70.6794H89.3167V67.9064H85.8498V72.0661L87.5832 73.7996ZM142.007 63.3999H135.074L131.261 77.9593H134.352L137.501 66.8664H139.58L142.585 77.9593H145.82L142.007 63.3999ZM66.611 90.4384H59.678L55.8649 104.998H58.9558L62.1046 93.9048H64.1845L67.1888 104.998H70.4241L66.611 90.4384ZM122.248 131.69H115.315L111.502 146.249H114.593L117.742 135.156H119.821L122.826 146.249H126.061L122.248 131.69Z" fill="white"/>
</g>
<defs>
<clipPath id="clip0_103:12">
<rect width="172" height="172" fill="white" transform="translate(14 14)"/>
</clipPath>
</defs>
</svg>
