<svg width="200" height="200" viewBox="0 0 200 200" fill="none" xmlns="http://www.w3.org/2000/svg">
<path d="M78.1682 100.496L116.325 139.881L140.403 115.031C141.398 113.99 142.593 113.162 143.917 112.596C145.24 112.031 146.663 111.739 148.102 111.739C149.54 111.739 150.964 112.031 152.287 112.596C153.61 113.162 154.806 113.99 155.801 115.031C157.849 117.169 158.993 120.018 158.993 122.982C158.993 125.945 157.849 128.794 155.801 130.932L124.024 163.741C123.023 164.772 121.826 165.592 120.504 166.152C119.181 166.712 117.76 167 116.325 167C114.889 167 113.468 166.712 112.146 166.152C110.823 165.592 109.626 164.772 108.625 163.741L62.7847 116.405V144.543C62.7847 150.721 57.8732 155.79 51.8923 155.79C45.8746 155.79 41 150.75 41 144.543V56.4566C41 50.2497 45.8746 45.2102 51.8923 45.2102C57.9027 45.2102 62.7847 50.2497 62.7847 56.4566V84.5947L108.625 37.2595C109.626 36.228 110.823 35.4082 112.146 34.8483C113.468 34.2885 114.889 34 116.325 34C117.76 34 119.181 34.2885 120.504 34.8483C121.826 35.4082 123.023 36.228 124.024 37.2595L155.808 70.0675C157.856 72.2058 159 75.0547 159 78.0183C159 80.982 157.856 83.8308 155.808 85.9691C154.813 87.0121 153.617 87.8422 152.292 88.4093C150.968 88.9764 149.542 89.2688 148.102 89.2688C146.662 89.2688 145.236 88.9764 143.912 88.4093C142.587 87.8422 141.391 87.0121 140.395 85.9691L116.325 61.1118L78.1682 100.496ZM116.339 89.2425C122.357 89.2425 127.239 94.282 127.239 100.496C127.239 106.711 122.357 111.75 116.339 111.75C110.322 111.75 105.44 106.711 105.44 100.496C105.44 94.282 110.322 89.2425 116.339 89.2425Z" fill="#24AE90"/>
</svg>
