<svg width="174" height="188" viewBox="0 0 174 188" fill="none" xmlns="http://www.w3.org/2000/svg">
<path d="M39.3072 11.2273L87.0186 67.1282L119.026 48.2917C119.026 48.2917 80.3765 -3.35502 70.1092 0.290562C60.4446 3.93615 39.3072 11.2273 39.3072 11.2273V11.2273Z" fill="black"/>
<path d="M120.235 48.2917C120.235 48.2917 127.482 35.5322 131.105 18.5185C131.105 18.5185 167.343 33.1008 153.45 69.5595L120.235 48.2917Z" fill="black"/>
<path d="M153.45 69.5595L156.47 107.841L170.363 106.018C170.363 106.018 173.985 104.801 173.382 98.1185C172.777 90.8274 171.568 75.6365 171.568 75.6365C171.568 75.6365 172.174 71.9909 163.718 70.7767C153.45 68.9539 153.45 69.5595 153.45 69.5595V69.5595Z" fill="black"/>
<path d="M156.473 107.841L128.691 130.323L141.375 155.237C141.375 155.237 144.395 164.956 153.453 154.019C161.907 143.083 165.532 141.26 164.926 134.577C164.324 127.892 162.512 112.095 156.473 107.841V107.841Z" fill="black"/>
<path d="M128.088 130.32L90.0382 113.309L56.8223 180.756C56.8223 180.756 54.4054 185.615 62.8615 186.224C71.3176 187.438 85.2074 190.478 92.4551 183.184C99.7028 176.501 128.088 130.32 128.088 130.32Z" fill="black"/>
<path d="M90.0382 112.701L86.4158 67.7367L4.28006 73.2051C4.28006 73.2051 -0.550772 73.8137 0.0519949 82.9276C0.65766 95.0786 1.8632 108.447 1.8632 108.447C1.8632 108.447 1.26043 113.915 12.1305 114.524C23.0035 115.132 88.8327 115.132 90.0382 112.701V112.701Z" fill="black"/>
</svg>
