<svg version="1.1" width="365.4" height="354.5" xmlns="http://www.w3.org/2000/svg"><g stroke="none" fill-rule="evenodd"><path d="M165.6 9.6c-17.3 1.2-37.4 6-52.2 12.6l-2 .9 2 .4c8.1 1.8 11.8 5.6 11.8 12.2 0 14.2-17.2 31.3-46.5 46-6.3 3.1-6 2.3-2.6 7.5 4 5.9 19.5 20.1 20.4 18.7.1 0 .8-1 1.5-2.3 26.2-42.3 136.8-81.2 176.5-62l3.1 1.3a161.2 161.2 0 0 0-112-35.3m41.6 148.8c-33.4 5-74 8.8-98.4 9.4-28.8.7-28 .6-31.1 3.8-3.5 3.5-3.2-3.5-3 65.8l.1 35.5 13.3-.2a1014.7 1014.7 0 0 0 127.1-11.1c.1 0 .2-23.5.2-52.2 0-28.7 0-52.2-.2-52.2l-8 1.2m.8 7 .5 1.9 2.3-.3 2.2-.3-1.7 1.8-1.7 1.7.6 1.8c.8 2.2.6 2.3-1.3 1l-1.6-1-1.7 1.5c-2 1.7-2.1 1.6-1.4-.9l.5-2-1.6-1c-1.7-1-1.5-1.6.7-1.6 1.7 0 2-.3 2.6-2.5.6-2.4 1-2.4 1.6 0m-24.8 3.1.5 1.9 2.2-.3c2.5-.3 2.6-.1.5 1.7l-1.6 1.5.6 1.8c.8 2.2.6 2.3-1.3 1l-1.6-1-1.7 1.5c-2 1.7-2.2 1.6-1.4-.7.8-2.3.8-2.2-1-3.2-2-1.1-2-1.6-.3-1.6 2.5 0 3-.3 3.5-2.4.6-2.5 1-2.5 1.6-.2m-22 4.3c1.2 0 2 0 2 .3 0 .2-.1.4-.3.4-.2 0-.9.6-1.6 1.2L160 176l.6 1.6c.8 2.3.8 2.6-.3 2-2.7-1.8-2.5-1.8-4.1-.5-2 1.7-2.3 1.6-1.6-.3.8-2.4.8-2.5-1-3.6s-1.5-1.6 1-1.6h1.7l.7-2.3.7-2.3.7 2 .7 2 2-.1M134 174c.3 1 .6 1.1 2.5 1.1h2.1l-1.7 1.5-1.6 1.5.6 1.7c.7 2.2.5 2.4-1.4 1.1-1.2-.8-1.6-.9-2.1-.5l-2 1.4-1.2 1 .6-2c.8-2.6.8-2.6-1-3.7s-1.5-1.6 1-1.6c1.7 0 1.8 0 2.2-1.7.8-2.9.9-2.9 2 .2m-25 .7.7 2h4.1l-1.6 1.3-1.5 1.4.4 1.8.5 2.1c0 .1-.8-.3-1.7-1l-1.7-1.1-1.5 1.2c-1.9 1.5-2.2 1.3-1.4-1l.6-1.8-1.6-1.2-1.7-1 2-.4c2.1-.3 2.2-.4 2.8-2.3.8-2.4.8-2.4 1.6 0m-24.8.8.7 2H89l-1.6 1.3-1.6 1.4.5 1.7c.7 2.2.4 2.4-1.3 1l-1.5-1-1.7 1.2c-2 1.4-2 1.3-1.2-1.2.3-1 .6-1.7.5-1.8l-1.7-1.2-1.6-1.2 2.2-.2 2.1-.2.6-1.9c.7-2.4.7-2.4 1.5.1m111.4 1.8.5 1.9 2.2-.2c2.5-.3 2.5-.2.5 1.6l-1.6 1.5.6 1.8c.8 2.1.6 2.3-1.1 1.2-1.8-1-2-1-3.7.5-1.8 1.5-2 1.4-1.2-1 .7-2.2.7-2.1-1.5-3.3-1.4-.8-1-1.4.8-1.4 2 0 2.3-.3 2.9-2.5.6-2.4 1-2.4 1.6 0m-22 4.6 2.2-.1-1.7 1.5-1.7 1.6.6 1.7c.9 2.4.8 2.5-1 1.4-2-1.2-1.8-1.2-3.6.2-2 1.6-2 1.5-1.4-.7.8-2.4.8-2.2-1-3.3-1.8-1.1-1.5-1.6 1-1.6 1.6 0 1.8 0 2-1.3.7-3.3 1-3.5 1.8-1.3l.7 2 2.1-.1m-24.9 2.4c1.3-.1 2.1 0 2.1.3 0 .2-.1.4-.3.4-.2 0-.9.6-1.6 1.2l-1.3 1.2.6 1.6c.9 2.4.8 2.5-1 1.4-2-1.2-1.8-1.2-3.6.2-2 1.6-2 1.5-1.4-.4.8-2.4.8-2.6-1.1-3.8l-1.7-1.2 2.2-.2 2.2-.2.8-2.2.8-2.1.6 2 .7 1.9 2-.1m-27.3.2.6 1.9 2.3-.1 2.3-.2-1.9 1.5-1.8 1.5.6 1.7c.8 2.3.5 2.6-1.3 1.2-1-.8-1.6-1-2-.8l-1.8 1.4-1.3 1 .2-1 .5-2.2c.2-1.1.1-1.3-1.5-2.4l-1.7-1.2 2.3-.1c2.2-.1 2.3-.2 2.7-1.6l.6-2c.3-.8.5-.6 1.2 1.4m-24.8.9.7 2h4.5l-1.7 1.2c-1.9 1.4-2 1.6-1.1 4 .7 1.9.5 2-1.6.4l-1.6-1.1-1.5 1.2c-1.9 1.5-2 1.3-1.3-1l.5-2-1.5-1c-1.9-1.2-1.9-1.3.6-1.6 2-.3 2-.3 2.5-2.2.7-2.3.7-2.3 1.5.1m111.4.6.5 1.9 2.3-.3 2.2-.2-1.7 1.6-1.7 1.7.6 1.8c.8 2.3.7 2.4-1.4 1.1l-1.6-1-1.6 1.5c-2 1.7-2.2 1.6-1.4-1 .6-2 .6-2-1.5-3.1-1.3-.7-1.1-1.4.4-1.4 2.3 0 2.7-.4 3.3-2.4.6-2.5 1-2.5 1.6-.2m-24.8 3.2.5 1.9 2.2-.3c2.5-.3 2.5-.2.5 1.7l-1.6 1.5.6 1.8c.8 2.2.6 2.3-1.4 1l-1.6-1-1.6 1.5c-2 1.7-2.1 1.6-1.4-1 .7-2 .2-2.8-1.9-3.5-1-.4-.9-1 .3-1 2.7 0 3.3-.4 3.8-2.4.6-2.5 1-2.5 1.6-.2m-22 4.3c1.2-.1 2 0 2 .3 0 .2-.1.4-.3.4-.2 0-.9.6-1.6 1.2l-1.3 1.2.6 1.6c.8 2.3.8 2.6-.3 2-2.7-1.9-2.5-1.8-4.2-.5-2 1.7-2.2 1.6-1.5-.3.8-2.4.8-2.5-1-3.6-2-1.2-1.7-1.6.8-1.6h1.9l.5-1.9c.8-2.8.9-2.8 1.6-.7l.7 2 2-.1m-27.1 1.2c.3 1 .6 1.1 2.5 1.1h2.1l-1.7 1.4-1.6 1.5.6 1.7c.7 2.2.5 2.5-1 1.5l-1.6-1c-.2-.2-1.1.3-2 1-1.6 1.3-2 1-1.3-1 .6-1.8.5-2-1.2-3-2-1.3-1.7-1.7.8-1.7h2l.4-1.7c.8-2.9.9-2.9 2 .2m-25 .7.7 2h2l2.1.2-1.7 1.2-1.6 1.2.5 1.5c1 2.6.8 2.9-1.1 1.5L108 202l-1.5 1.3c-1.8 1.5-2 1.3-1.3-1l.6-1.8-1.6-1.2c-1.7-1.2-1.5-1.6 1.4-1.7.9 0 1.1-.3 1.7-2 .8-2.4.8-2.4 1.6 0m-24.8.8.7 2h2l2.1.2-1.6 1.2-1.7 1.2.6 1.7c.8 2.2.5 2.5-1.3 1.1l-1.5-1-1.7 1.2c-2 1.4-2 1.3-1.2-1.2.6-1.6.6-1.8-.1-2.2a33 33 0 0 1-1.7-1.3l-1-.9h4.1l.7-2c.8-2.4.8-2.4 1.6 0m111.4 1.8.5 1.9 2.2-.3c2.5-.3 2.5-.2.5 1.7l-1.6 1.5.6 1.8c.8 2.2.6 2.3-1.3 1l-1.6-1-1.7 1.5c-2 1.7-2.1 1.6-1.4-.9.7-2.1.7-2-1.5-3.2-1.5-.8-1.4-1.4.2-1.4 2.5 0 3-.3 3.5-2.4.6-2.5 1-2.5 1.6-.2m-22 4.7 2.2-.1-1.7 1.5-1.7 1.6.6 1.7c.9 2.4.8 2.5-.9 1.4-1.9-1.3-2-1.3-3.7.2-1.9 1.6-2 1.5-1.3-.8.3-1.1.5-2.1.4-2.2l-1.7-1.1c-1.7-1.2-1.5-1.4 1.2-1.6 1.5 0 1.6-.2 2.1-1.7 1-2.9 1-2.9 1.7-.8l.7 2 2.1-.1m-24.8 2.4 2.2-.1-1.7 1.5-1.7 1.6.6 1.7c.9 2.4.8 2.5-.9 1.4-1.9-1.3-2-1.3-3.7.2-1.9 1.6-2 1.5-1.3-.9l.7-2-1-.7c-2.7-1.7-2.8-2-.7-2 2.1 0 3-.6 3.3-2.5.5-2.1.7-2.2 1.4 0l.7 1.9 2.1-.1m-27.2.8c.4 1 .5 1.1 2.6 1.1h2.3l-1.8 1.4-1.9 1.4.7 1.8c.7 2.3.6 2.4-1.3 1.1-1-.7-1.7-.9-2-.7l-1.8 1.4-1.3 1 .2-1 .5-2.2c.2-1.1.1-1.3-1.5-2.4l-1.7-1.2 2.3-.1 2.3-.1.4-1.7c.8-2.9.9-2.9 2 .2m-25 .3.7 2h4.5l-1.7 1.2c-1.9 1.4-2 1.6-1.1 4 .7 2 .5 2-1.6.4l-1.5-1.2-1.6 1.2c-2 1.5-2.2 1.3-1.4-1l.7-1.8-1.6-1c-2.1-1.4-2-1.7.5-1.9l2-.1.6-1.9c.7-2.3.7-2.3 1.5.1m111.4.6.5 1.8 2.3-.2 2.2-.3-1.7 1.7-1.8 1.7.7 1.8.6 2-1.8-.8-1.8-1-1.6 1.4c-2 1.7-2.2 1.6-1.4-1 .6-2 .6-2-1.5-3.1-1.5-.8-1.4-1.4.3-1.4 2.1 0 2.8-.5 3.4-2.6.6-2.3 1-2.3 1.6 0m-24.8 3.2.5 1.9 2.2-.3c2.5-.3 2.5-.2.5 1.7l-1.6 1.5.6 1.8c.7 2 .6 2.3-.9 1.3l-1.6-1c-.2-.2-1.2.3-2.1 1.1-2 1.7-2.1 1.7-1.4-.8.7-2.1.2-3-1.9-3.6-1.3-.4-.7-.9 1.4-1.2l2.2-.2.5-2c.6-2.5 1-2.5 1.6-.2m-22 4.3 2.2-.1-1.7 1.5-1.7 1.6.6 1.7c.9 2.4.8 2.5-1 1.4-2-1.2-1.8-1.2-3.6.2-2 1.6-2 1.5-1.4-.4.8-2.4.8-2.5-1-3.6-2.1-1.3-2-1.6.5-1.6h2.2l.5-1.9c.8-2.8.9-2.8 1.6-.7l.7 2 2.1-.1m-27.2 1.2c.4 1.1.5 1.2 2.4 1 2.4-.1 2.5 0 .4 1.7l-1.5 1.2.6 1.8c.7 2.3.6 2.4-1.3 1.1-1-.7-1.7-.9-2-.7l-1.8 1.4-1.3 1 .2-1 .5-2.2c.2-1.2.1-1.4-1.2-2.2-2-1.2-1.8-1.6.6-1.6 1.7 0 2-.1 2.2-1 .8-3.5 1-3.5 2.2-.5m-25 .7.7 2h2l2.1.2-1.7 1.2-1.6 1.2.5 1.5c1 2.6.8 2.9-1 1.5l-1.7-1.2-1.6 1.2c-2 1.5-2.2 1.3-1.4-1l.7-1.8-1.6-1c-1.8-1.3-1.6-1.8.9-1.8 1.4 0 1.5 0 2.1-2 .8-2.4.8-2.4 1.6 0m-24.7 1c.5 1.8.5 1.8 2.6 1.9l2.1.1-1.6 1.2-1.7 1.2.6 1.7c.7 2.2.5 2.4-1.2 1.1-1.7-1.3-1.7-1.3-3.5.2-1.8 1.4-1.9 1.3-1-1.2.6-1.6.6-1.8-.1-2.2a33 33 0 0 1-1.7-1.3l-1-.9h4.1l.7-2c.8-2.3 1-2.2 1.7.3m111.3 1.5.5 1.9 2.2-.3c2.5-.3 2.5-.2.5 1.7l-1.6 1.5.6 1.8c.8 2.2.6 2.3-1.4 1l-1.6-1-1.6 1.5c-2 1.7-2.2 1.6-1.4-1 .6-2 .7-1.9-1.5-3.2-1.5-1-1.4-1.3.3-1.3 2.1 0 2.8-.5 3.4-2.6.6-2.3 1-2.3 1.6 0m-22 4.7 2.2-.1-1.7 1.5-1.7 1.5.6 1.8c.8 2.2.6 2.4-1.3 1.1l-1.6-1-1.5 1.3c-2 1.8-2.2 1.7-1.6-.5.8-2.4.8-2.3-1-3.3-2.1-1.2-2-1.5.5-1.7 2-.1 2-.1 2.6-1.7 1-2.9 1-2.9 1.7-.8l.7 2 2.1-.1m-24.8 2.4 2.2-.1-1.7 1.5-1.7 1.5.6 1.8c.9 2.5.8 2.6-1.1 1.3l-1.7-1.2-1.6 1.3c-2 1.8-2.3 1.7-1.6-.2.8-2.4.8-2.6-1.1-3.8-1.6-1.1-1.6-1.2-.7-1.3 3.3-.4 3.5-.5 4-2l.7-2.1c.1-.4.5.2.9 1.4l.7 2 2.1-.1m-27.2.8c.3 1 .6 1.1 2.5 1.1h2.1l-1.7 1.4-1.6 1.5.5 1.6c.8 2.2.8 2.5-.3 1.8-2.7-1.8-2.5-1.7-4.3-.3-2 1.5-1.8 1.7-1-1.9.3-1.1.2-1.3-1.4-2.4l-1.8-1.1 2.3-.1 2.3-.1.4-1.7c.8-2.9.9-2.9 2 .2m-25 .3.7 2h4.1l-1.6 1.3c-1.6 1.4-1.6 1.4-1 3 .7 2.5.5 2.7-1.3 1.3l-1.6-1.2-1.6 1.2c-2 1.5-2.2 1.3-1.4-1l.6-1.8-1.5-1c-2-1.5-2-1.7.5-1.9l2-.1.6-1.9c.7-2.4.7-2.3 1.5.1m111.4.6.5 1.8 2.3-.2 2.2-.2-1.7 1.6-1.8 1.6.7 1.9.6 2-1.8-.9-1.8-1-1.7 1.4c-2 1.8-2.2 1.6-1.3-.9l.6-2-1.6-1c-1.9-1-2-1.5-.4-1.5 2.2 0 3-.6 3.6-2.6.6-2.3 1-2.3 1.6 0m-24.8 3.2.5 1.8 2.3-.2 2.2-.3-1.7 1.7-1.8 1.7.7 1.8.6 2-1.8-.9-1.8-1-1.7 1.4c-2 1.8-2 1.7-1.3-.8.6-2 .6-2-.3-2.6-2.7-1.8-2.7-1.9-.3-2.2l2.3-.3.5-2c.6-2.4 1-2.4 1.6 0m-22 4.2 2.2-.1-1.7 1.5-1.7 1.6.6 1.7c.9 2.4.8 2.5-.9 1.4-1.9-1.3-2-1.3-3.7.2-1.9 1.6-2 1.5-1.4-.7.8-2.4.8-2.3-1-3.3-2.1-1.2-2-1.5.5-1.7 2-.1 2.1-.1 2.6-1.7 1-2.9 1-2.9 1.7-.8l.7 2 2.1-.1m-24.9 2c2.5 0 2.6.2.5 1.8l-1.6 1.3.6 1.7c.8 2.2.8 2.5-.3 1.8-2.7-1.8-2.5-1.7-4.1-.4-2 1.7-2.3 1.6-1.6-.4.8-2.3.8-2.5-.8-3.5-1.9-1.2-1.8-1.6.5-1.6h2l.7-2.3.7-2.3.7 2 .7 2h2m-27.3-.1.7 2 2.2-.2 2.3-.3-1.6 1.4c-.9.8-1.7 1.4-1.9 1.4-.1 0 0 .7.3 1.6 1 2.7.8 3-1 1.6l-1.7-1.2-1.6 1.2c-2 1.5-2.2 1.3-1.4-1l.7-1.8-1.6-1c-2.1-1.4-2-1.8.4-1.8h2l.6-2c.8-2.5.8-2.5 1.6 0m-24.6 1 .4 2 2.2-.4c2.7-.3 2.7-.2.4 1.4l-1.7 1.3.6 1.8c.7 2.2.5 2.4-1.2 1.1-1.7-1.3-1.7-1.3-3.5.2-1.8 1.4-1.9 1.3-1-1.3.6-1.7.6-1.7-.3-2.3-2.6-1.8-2.7-2-.4-2h2l.7-2c.8-2.3 1.1-2.3 1.8.2m111.2 1.6.5 1.9 2.3-.3 2.2-.2-1.7 1.6-1.8 1.7.7 1.8c.8 2.3.7 2.4-1.4 1l-1.7-1-1.5 1.5c-2 1.9-2.2 1.7-1.4-.8l.6-2c0-.1-.7-.6-1.6-1-1.9-1.1-2-1.6-.4-1.6 2.2 0 3-.6 3.6-2.6.6-2.3 1-2.3 1.6 0m-22.1 4.5c2.5-.1 2.6 0 .5 1.8l-1.6 1.3.6 1.8c.8 2.2.6 2.4-1.3 1l-1.6-1-1.6 1.4c-2 1.8-2.2 1.8-1.5-.5.8-2.5.8-2.3-1-3.4-2-1.2-2-1.5.1-1.5 2.2 0 2.5-.2 3-2.2.9-2.5 1-2.5 1.7-.5l.6 2 2-.2m-27.3.8.6 1.9 2.1-.1 2.2-.1-1.7 1.5-1.7 1.5.6 1.8c.8 2.2.6 2.4-1.3 1l-1.6-1-1.6 1.4c-2 1.8-2.1 1.8-1.5-.5.8-2.5.8-2.3-1-3.6-1-.6-1.5-1.1-1.3-1.2l2.2-.3c1.8-.2 1.9-.3 2.3-2 .8-2.8 1-2.8 1.7-.3m-24.8 1.7.5 1.8 2.2.2 2.2.2-1.7 1.3-1.7 1.3.6 1.7c.8 2.2.8 2.5-.3 1.8-2.7-1.8-2.5-1.7-4.3-.3-2 1.5-1.8 1.7-1-1.9.3-1.1.2-1.3-1.4-2.4l-1.8-1.1 2.3-.1 2.2-.1.7-2.3c.8-2.5.8-2.5 1.5 0M96.6 248l.7 2h4.1l-1.6 1.3c-1.6 1.4-1.6 1.4-1 3 .6 2.4.5 2.6-.9 1.6-2-1.5-2.1-1.6-3.7-.3-1.9 1.5-2 1.3-1.3-1l.7-1.8-1.6-1.1c-2-1.4-2-1.6.5-1.8l2-.1.6-1.9c.7-2.4.7-2.4 1.5.1m111.4.6.5 1.8 2.3-.2 2.2-.3-1.8 1.6-1.7 1.6.6 2 .7 2-1.8-.9-1.8-1-1.7 1.4c-2 1.8-2.2 1.6-1.3-.9l.6-2-1.6-1c-1.9-1-2-1.5-.4-1.5 2.2 0 3-.6 3.6-2.6.6-2.3 1-2.3 1.6 0m-24.7 3.2.5 1.8 2.2-.2 2.2-.2-1.7 1.5-1.7 1.6.6 1.7c.9 2.5.8 2.5-1.2 1.4l-1.8-1-1.7 1.4c-2 1.7-2 1.7-1.3-.8l.6-2.1-1.7-1.2-1.7-1 2.2-.5c2.1-.4 2.2-.4 2.8-2.3.7-2.4 1-2.4 1.7 0m-22 4.2 2.1-.1-1.7 1.5-1.7 1.5.6 1.8c.9 2.5.8 2.6-1.1 1.3l-1.7-1.2-1.6 1.3c-2 1.8-2.2 1.7-1.6-.5.8-2.5.8-2.4-1-3.4-2-1.2-2-1.5.2-1.5 1.8 0 3-.7 3-1.8l.4-1.7.5-1.1.7 2 .7 2 2.1-.1m-24.6 2h2.4l-1.9 1.5-1.9 1.6.6 1.7c.8 2.2.8 2.5-.3 1.8-2.7-1.8-2.5-1.7-4.2-.4-2.1 1.7-2.1 1.7-1.4-.8l.7-2-1-.7c-2.8-1.8-2.8-2-.4-2h2.3l.7-2.3.7-2.3.7 2 .7 2h2.3M109 258l.7 2 2.1-.2c2.7-.3 2.7-.2.4 1.4l-1.7 1.3.6 1.8c.7 2.1.5 2.4-1 1.4l-1.6-1c-.2-.2-1 .3-2 1-1.8 1.4-1.9 1.3-1.2-1.1.5-1.8.5-2-.5-2.6-2.8-1.8-2.8-2-.3-2h2.2l.7-2c.8-2.5.8-2.5 1.6 0m-24.6 1 .5 1.7 2-.2c2.3-.2 2.4.2.3 1.7l-1.5 1 .5 1.7c.8 2.2.8 2.5-.3 1.8-2.7-1.8-2.5-1.7-4.3-.3-1.8 1.4-1.9 1.3-1-1.2.6-1.7.6-1.8 0-2.3l-1.8-1.3-1-.8h4.1l.7-2c.8-2.3 1.1-2.3 1.8.1" fill="#232d8f" transform="translate(.1 -9.3)"/><path d="M337.8 152.6c-12.4 1.4-23 3-65.3 10.4-13.5 2.3-31.8 5.4-40.6 6.7l-16.1 2.5-.1 7.5c0 4.1 0 7.5.2 7.5 1.8 0 38.4-6 65.1-10.6 67-11.7 80-12.5 83.4-4.8l.8 1.6v-7.7c0-9.4-.3-10.3-3.8-12-3.9-1.7-13.2-2.2-23.6-1m-131.4 13.5c-.5 1.7-.5 1.7-2.7 2l-2.2.3 1.6 1c1.9 1 2 1.3 1.1 3.7l-.6 1.7 1.8-1.5 1.8-1.5 1.5.9c1.7 1 1.9 1 1.2-1.2l-.5-1.7 1.6-1.4 1.6-1.4-2 .2-2.2.3-.5-1.6c-.6-2-.9-2-1.5.2m-24.3 2c-.3.5-.6 1.5-.7 2-.2.8-.5 1-1.7 1-2.4 0-2.7.5-1 1.6l1.6 1-.5 1.5c-.9 2.4-.8 2.5 1 1.1s1.8-1.4 3.3-.4c1.5 1.1 1.7.9 1-1.2l-.5-1.7 1.6-1.4 1.6-1.4-2 .2-2 .2-.7-1.8-.6-1.9-.4 1.1m-25 3.4c-.7 2-.8 2-2.8 2.4l-2 .3 1.6 1.1 1.7 1-.6 1.7c-.9 2.5-.8 2.6 1 1l1.7-1.4 1.4 1c2 1.4 2.1 1.3 1.4-.9l-.6-1.8 1.5-1.4 1.6-1.3h-4l-.7-1.9-.6-1.9-.6 2m-24.7 2c-.6 2-1.3 2.6-3.5 2.6h-1.5l1 .7c2.5 1.8 2.5 1.7 1.8 3.7l-.6 1.9 1.6-1c1.8-1.6 1.9-1.6 3.6-.3 1.7 1.2 1.8 1.1 1-1l-.6-1.8 1.6-1.5 1.7-1.5h-2.1l-2.2.2-.6-2-.7-2-.5 2m-24.8 1.6-.6 2-2.2.2-1.8.3c.2 0 1 .6 1.7 1.2l1.3 1.1-.5 1.9-.6 1.9 1.7-1.2 1.7-1.3 1.4 1c1.8 1.4 2 1.4 1.3-.6-.8-2.1-.8-2 1-3.4l1.7-1.3h-4.4l-.5-1.9-.6-1.8-.6 2m-24.8.6c-.5 1.9-.5 1.9-2.5 2.1l-2 .3 1.5 1c1.6 1.2 1.6 1 .8 3.2-.7 2-.6 2 1.2.7 1.6-1.2 1.7-1.2 3.4 0s1.8 1.1 1-1c-.6-1.7-.6-1.8.3-2.5 2.7-2 2.7-1.9.4-1.9-2 0-2.2 0-2.5-1.1-1-2.7-1-2.8-1.6-.8m111.2 2.5c-.5 1.7-.5 1.7-2.7 2l-2.2.3 1.6 1c1.9 1 2 1.3 1.1 3.7l-.6 1.7 1.8-1.5 1.8-1.5 1.5.9c1.8 1 2 .8 1.2-1.2l-.6-1.6 1.6-1.4 1.7-1.4-2 .2-2.2.2-.4-1.6c-.7-2-1-2-1.6.2m-24.5 2.4c-.7 2-.8 2.1-2.8 2.4l-2 .4 1.6 1 1.7 1.2-.6 1.7c-.8 2.1-.5 2.3 1.2.7.8-.7 1.7-1.1 2-1l1.5 1c1.5 1.1 1.5 1 .8-1l-.6-2 1.7-1.5 1.6-1.4-2 .2-2.2.2-.6-2-.7-1.9-.6 2m-24.9 2.5c-.6 1.8-.8 2.1-1.7 2.1-2.7 0-3 .4-1.4 1.5l1.6 1.1-.5 1.8c-.8 2.2-.5 2.4 1.2.8.8-.7 1.7-1.1 2-1l1.5 1c1.5 1.1 1.5 1 .8-1l-.6-2 1.7-1.4 1.6-1.4-2.1.1-2.1.2-.6-2-.7-1.9-.7 2.1m197.2-1a679 679 0 0 0-53.4 7.9 2895.4 2895.4 0 0 1-71.5 11.8l-1.3.2v15.1l16.3-2.6a2968.8 2968.8 0 0 0 71.9-12.1c43.6-7.5 58.3-7.6 60.8-.6.5 1.5.6 1 .6-6.4 0-8.8-.2-9.5-2.8-11.5-2.5-1.8-12-2.7-20.6-1.9M120 184.6c-.6 2-.6 2-3 2.4l-1.6.3 1 .8 1.5 1c.5.4.5.6 0 2.3l-.7 2.1 1.7-1.2 1.7-1.4 1.7 1.1 1.7 1.2-.7-1.9-.6-1.9 1.7-1.5 1.8-1.5-2.2.1-2.1.1-.7-2-.7-2-.5 2m-24.8 1.3-.6 1.9-2.1.2-2.1.2 1.6 1c1.8 1.1 1.8 1.2 1 3.6l-.6 1.6 1.8-1.2 1.7-1.3 1.4 1c1.8 1.5 2 1.4 1.2-.7l-.6-1.8 1.1-1 1.8-1.3c.5-.4.2-.5-1.5-.5-2 0-2.2 0-2.5-1.1-1-2.7-1-2.7-1.6-.6m111.2.8c-.6 1.8-.7 2-2.7 2.3l-2 .4 1.6 1c1.7 1 1.7 1 .8 4-.2 1-.2 1 1.5-.4l1.7-1.3 1.6.9 1.6 1-.2-1c-.8-2.9-.8-3 .7-4.3 1.6-1.4 1.7-1.7.7-1.5-3.2.6-3.2.7-3.7-1-.7-2.2-1-2.2-1.6 0m-24.4 2.1-.6 2.1c-.2.8-.5 1-1.7 1-2.4 0-2.7.5-1 1.5l1.7 1-.6 1.6c-.9 2.4-.8 2.5 1 1l1.7-1.2 1.5.9c1.8 1 1.8 1 1.1-1.3-.5-1.6-.4-1.6 1.1-3l1.6-1.3h-2l-2 .2-.6-1.8-.7-1.8-.5 1.1m-25 3.3c-.6 2-.7 2.1-2.7 2.4l-2 .4 1.6 1.1 1.7 1-.6 1.8c-.8 2.1-.6 2.3 1.2.8l1.5-1.2 1.5 1c2 1.2 2 1.2 1.3-1l-.6-1.8 1.7-1.5 1.6-1.4-2.1.1-2.1.2-.6-2-.7-1.9-.6 2m-24.7 2c-.6 2-1.4 2.6-3.7 2.6h-1.3l1.6 1 1.7 1.2c.1.1-.1 1-.5 2l-.6 2.1 1.7-1.2 1.7-1.4 1.7 1.2 1.7 1-.6-2-.7-2 1.1-.8c2.6-2 2.6-2 .2-1.8l-2.1.1-.7-2-.7-2-.5 2m-24.8 1.6-.6 2-2.1.1-2.2.1 1.7 1.2 1.6 1.3-.6 2-.6 2 1.3-1 1.7-1.3c.4-.2 1 0 2 .7 1.8 1.4 1.9 1.4 1.2-.5-.8-2.3-.8-2.2 1-3.6l1.8-1.2h-2.3c-2 0-2.3-.1-2.3-.7 0-.4-.3-1.2-.5-1.9l-.5-1.1-.6 2m-24.8.5-.5 2h-2.2c-2.3 0-2.3 0-1.3.7 2.6 1.9 2.6 1.8 1.9 3.8-.8 2.2-.7 2.3 1.3.7l1.4-1.1 1.6 1.1c1.9 1.5 2 1.4 1.2-.8l-.6-1.8 1.3-1c.7-.7 1.5-1.2 1.7-1.3l-1.8-.3-2.1-.2-.7-2-.6-1.9-.6 2M194 199c-.5 1.6-.6 1.8-1.8 1.8-2.5 0-2.9.6-1.2 1.6 1.6 1 1.6 1 .7 4-.2 1-.2 1 1.4-.3l1.7-1.4 1.5.9c1.7 1 1.9 1 1.2-1.2l-.5-1.7 1.6-1.4 1.6-1.4-2 .2-2.2.3-.5-1.6c-.6-2-.9-2-1.5.2m-24.1 1-.7 2c-.4 1.4-.6 1.5-2.5 1.8-1.8.2-2 .3-1.4.7 2.6 1.6 2.7 1.8 2 3.6-.7 2.1-.4 2.3 1.3.7l1.4-1.3 1.6 1c2 1.4 2 1.4 1.3-.8l-.6-1.9 1.7-1.5 1.7-1.5-2.2.2-2.1.3-.7-2c-.3-1.1-.7-1.7-.8-1.3m-25.3 3.9c-.6 2-.7 2.1-2 2.1-2.5 0-2.8.4-1.1 1.5l1.6 1.1-.5 1.8c-.8 2.2-.7 2.3 1.2.8.8-.6 1.7-1 2-1l1.5 1c1.5 1.1 1.5 1 .8-1l-.6-2 1.7-1.4 1.7-1.5-2.2.2-2.1.2-.6-2-.7-1.9-.7 2.1m-24.6 1.6c-.6 1.8-.7 2-2.3 2.1-2.3.3-2.4.5-.7 1.6 1.6 1.1 1.6 1 .8 3.2-.7 1.9-.5 2 1.4.4l1.4-1.1 1.7 1.1 1.7 1.2-.6-2-.6-2 1-1c2.6-2 2.6-1.8.2-1.7l-2.1.1-.7-2-.6-1.9-.6 2m-24.8 1.2c-.6 1.9-.6 1.9-2.6 2.1l-2 .2 1.5 1c1.7 1.2 1.7 1 1 3.3l-.6 1.9 1.7-1.3 1.8-1.2 1.4 1c1.8 1.4 1.9 1.4 1.1-.8-.6-1.8-.6-1.8.3-2.5 2.8-2.1 2.8-2 .5-2-2 0-2.2 0-2.5-1.1-1-2.7-1-2.7-1.6-.6m111.3.7c-.5 2-.6 2-3.1 2.4-1.4.3-1.5.3-.9.7 2.5 1.5 2.5 1.6 1.8 3.9l-.6 2 1.6-1.4c2-1.7 1.8-1.6 3.7-.5l1.5.9-.2-1c-.9-2.9-.8-3 .9-4.5 1.3-1.3 1.5-1.5.7-1.3-3.4.7-3.4.7-3.9-1-.6-2.2-1-2.2-1.5-.2m-24.3 2c-1.3 3.5-1.3 3.4-3 3.4-2.1 0-2.3.5-.4 1.5l1.6 1-.6 1.6c-.9 2.4-.8 2.5 1 1l1.6-1.2 1.6.9c1.8 1 1.8 1 1.1-1.3l-.5-1.6 1.7-1.5 1.7-1.5-2 .3c-2.3.3-2.2.3-3.3-2.8-.2-.5-.3-.4-.5.2m-25.2 3.7c-.6 1.8-.8 2.1-1.7 2.1-.6 0-1.5.2-2.1.4l-1 .3 1.2.6c2.3 1.3 2.3 1.2 1.6 3-.8 2.3-.6 2.5 1.2 1 .8-.8 1.7-1.2 2-1l1.5 1c1.5 1 1.5 1 .8-1.2l-.6-1.9 1.7-1.4 1.7-1.5-2.2.2-2.1.2-.6-2-.7-1.9-.7 2.1m183.4-1.2c-19.8 2.3-23.6 2.9-59.4 9.1a3158 3158 0 0 1-56.7 9.4l-8.7 1.3v15.1l1.3-.2 16.7-2.6c8.5-1.3 24.8-4 36.2-6 60.1-10.4 70.7-11.9 81.9-11.5 8.2.3 11.9 1.8 13 5.2.3 1 .4-.4.5-6.4 0-10-.4-11.2-5.4-12.8-2-.6-15.7-1-19.4-.6m-208 3.2c-.6 1.9-.7 2-2.7 2.3l-2.1.4 1.6 1c1.8 1.1 1.8 1 1 3.2a19 19 0 0 0-.6 1.9l1.7-1.2 1.7-1.4 1.7 1.2 1.7 1-.6-2c-.4-1-.6-2-.5-2l1.7-1.5 1.5-1.3-2.1.2-2.1.1-.7-2-.6-1.9-.6 2m-24.8 1.3c-.6 2.2-.9 2.4-3.2 2.4h-1.8l1.6 1 1.7 1.2c.1 0-.1 1-.5 2.2-.6 2.3-.6 2.3 1.7.2 1-.8.9-.9 3.6 1l.9.5-.6-1.7c-.8-2.3-.8-2.2 1-3.6l1.8-1.2h-2.3c-2 0-2.3-.1-2.3-.7 0-.4-.3-1.2-.6-1.9l-.5-1.2-.5 1.8m-24.8.7-.5 2.1h-4.5l1.7 1.2c2 1.4 1.9 1.3 1.1 3.6-.7 2-.6 2 1.4.4l1.4-1.1 1.6 1.1c1.9 1.5 2 1.4 1.2-.8l-.6-1.8 1.3-1c.7-.7 1.5-1.2 1.7-1.3l-1.8-.3-2.1-.2-.7-2-.7-2-.5 2.1m111.3 2.3c-.5 2-.6 2-3.1 2.4-1.4.3-1.5.3-.9.7 2.5 1.5 2.5 1.6 1.8 3.9l-.6 2 1.7-1.4c2-1.6 2-1.6 3.5-.6 1.5 1.1 1.7.9 1-1.2l-.5-1.7 1.8-1.6c1-.8 1.5-1.4 1.2-1.3l-2.2.4-1.7.2-.5-1.8c-.6-2.3-1-2.3-1.5 0m-24.2 1.4-.7 2.1c-.4 1.2-.7 1.5-1.5 1.5-2.9.1-3.2.6-1.4 1.6l1.6 1-.5 1.7c-.7 2.3-.6 2.4 1.1.9l1.5-1.3 1.8 1.1 1.8 1-.7-1.8-.6-2 1.7-1.5 1.6-1.6-2.1.3-2.1.3-.7-2c-.3-1.1-.7-1.7-.8-1.3m-25.3 3.9-.7 2.1h-1.7c-2.2 0-2.3.4-.4 1.6a8 8 0 0 1 1.4 1l-.6 1.8c-.8 2.2-.6 2.3 1.1.8l1.5-1.3 1.8 1.1 1.8 1-.7-1.8-.6-2 1.7-1.5 1.8-1.5-2.2.3-2.2.2-.6-2-.7-1.9-.7 2.1m-24.6 1.6c-.6 1.9-.6 1.9-2.5 2-2.3.2-2.4.5-.5 1.7 1.6 1 1.6 1 .8 3.1-.7 2-.5 2 1.4.5l1.3-1.2 1.8 1.2a8 8 0 0 0 1.7 1l-.6-2-.7-1.8 1.1-1c2.6-2 2.6-1.8.2-1.7l-2.1.1-.7-2-.6-1.9-.6 2m-24.8 1c-.5 1.9-.5 1.9-2.5 2.2-2.2.2-2.2.1.2 1.9.7.5.7.6.1 2.6l-.6 2 1.7-1.2c1.7-1.4 1.5-1.5 4.2.3l.8.6-.5-2c-.6-1.8-.6-2 .3-2.6 2.7-2 2.7-1.9.4-1.9-2 0-2.2 0-2.5-1.1-1-2.7-1-2.8-1.6-.8m111.2 1c-.6 1.8-.7 2-2.3 2.1-2.3.3-2.4.6-.7 1.6 1.6.9 1.6 1 .7 4-.2.9-.2.9 1.4-.4l1.7-1.3 1.6.9c1.8 1 1.8 1 1.1-1.3-.4-1.5-.4-1.6 1-3l1.6-1.6-2 .2-2 .2-.5-1.7c-.7-2-1-2-1.6.3m-24.8 3.2c-.6 1.9-.6 1.9-2.5 2-2.3.2-2.4.4-.3 1.6l1.6.9-.6 1.7c-.9 2.4-.8 2.5.8 1.1 1.7-1.4 1.9-1.5 3.7-.4 1.5 1 1.5 1 .8-1.3l-.5-1.6 1.7-1.5 1.8-1.5-2.2.2-2.2.2-.5-1.7c-.7-2-.9-2-1.6.3m-24.5 2.4c-.7 2-.7 2-2.8 2.3l-2 .2 1.5 1 1.7 1.2-.5 1.8c-.8 2.2-.7 2.3 1.2.8.8-.6 1.7-1 2-1l1.5 1c1.5 1.1 1.5 1 .8-1l-.6-2 1.7-1.5 1.8-1.5-2.2.3-2.2.2-.6-2-.7-1.9-.6 2m-24.7 2c-.6 2-.7 2-2.8 2.3l-2 .4 1.5 1 1.6 1.1c.1.1 0 1-.4 2-.8 2.1-.6 2.2 1.3.6l1.3-1.2 1.8 1.2a7 7 0 0 0 1.7 1l-.6-1.8c-.8-2.2-.8-2 1.1-3.5l1.7-1.4-2.2.2h-2.1l-.7-1.9-.6-1.9-.6 2m-24.8 1.2-.5 2-2 .4-2 .2.9.8 1.5 1c.5.4.5.6 0 2.3l-.7 2.1 1.6-1.1c1.8-1.4 1.6-1.5 4.3.3l.9.6-.7-2-.6-1.8 1.5-1.3 1.6-1.2-2-.2c-2-.2-2-.2-2.6-2.2l-.7-2-.5 2m-24.8.9-.6 2.1h-4.4l1.7 1.2c2 1.4 1.9 1.3 1.1 3.6-.6 1.8-.4 1.8 1.8 0l1-.7 1.7 1.2 1.7 1-.6-2-.6-1.7 1.3-1c.7-.7 1.5-1.2 1.7-1.3l-1.8-.3-2.1-.2-.7-2-.7-2-.5 2.1m111.2 2.4c-.6 1.8-.7 2-2.3 2.1-2.3.3-2.4.6-.7 1.6 1.6.9 1.6 1 .7 4-.2.9-.2.9 1.4-.4l1.7-1.3 1.7.9 1.6 1-.2-1c-.9-3-.8-3 .8-4.4l1.5-1.3-2 .2-2.1.2-.5-1.8c-.6-2.2-.9-2.1-1.6.2m-24 1.1c-.2.2-.5 1.2-.8 2.1-.4 1.5-.5 1.7-1.7 1.7-2.5 0-2.9.5-1.1 1.6l1.5 1-.5 1.8c-.7 2.2-.6 2.3 1.2.8l1.4-1.3 1.8 1 1.7 1-.6-1.8-.6-2 1.5-1.4 1.6-1.5-2 .2-2 .3-.6-2c-.4-1-.7-1.7-.9-1.5m172.7 0a678 678 0 0 0-53.6 8c-36.4 6.3-50.3 8.6-78.8 13-36.1 5.6-93.8 10.4-126 10.4-10.5 0-9.4-1-9.4 7.7v7.2l14.5-.2c56.8-1 108-7 196.7-22.5 61.6-10.9 75.8-11.5 78.6-3.5.5 1.3.6.7.6-6.4 0-9.6-.3-10.5-3.7-12.1a48.2 48.2 0 0 0-18.9-1.5m-198 4-.7 2.1h-2c-2.3 0-2.2.2.4 2 1 .6 1 .6.3 2.4-.8 2.2-.7 2.2 1.1.8l1.5-1.3 1.8 1 1.8 1.1-.7-1.9-.6-1.9 1.7-1.5 1.7-1.5-2.2.2-2.1.3-.6-2-.7-1.9-.7 2.1m-24.6 1.6-.6 1.9-2.2.2-2.2.2 1.7 1.1c1.8 1.3 1.8 1.5.8 4.2-.3 1-.2 1 2-.6l1.2-.9 1.6 1.2 1.7 1-.6-1.8c-.8-2.2-.8-2 1.1-3.5l1.7-1.4-2.2.2H122l-.7-1.9-.6-1.9-.6 2m-24.8.9c-.4 1.9-.6 2-1.7 2-2.6 0-3 .5-1.3 1.6 1.6 1.2 1.6 1 .8 3.2l-.6 1.9 1.6-1.1c1.8-1.4 1.6-1.5 4.3.3l.9.6-.6-2-.6-1.9 1.3-1c.7-.7 1.5-1.2 1.7-1.3l-1.8-.3-2.1-.2-.7-2-.6-1.9-.6 2m111.2 1.2c-.6 1.8-.7 2-2.3 2.1-2.3.3-2.4.6-.7 1.6 1.2.7 1.4 1 1.2 1.8 0 .6-.3 1.5-.5 2.1l-.2 1.1 1.4-1.3c1.8-1.5 2-1.6 3.8-.5 1.5 1 1.5 1 .8-1.3-.4-1.5-.4-1.6 1-3l1.6-1.6-2 .2-2 .2-.5-1.7c-.7-2-1-2-1.6.3m-24.6 2.6c-.4 2-.8 2.4-2.9 2.7l-1.9.2 1.7 1.1 1.6 1.2-.5 1.6c-.9 2.4-.8 2.5.8 1.1 1.7-1.4 1.9-1.5 3.7-.3l1.4.8-.2-1c-.9-2.8-.8-3 .9-4.4l1.6-1.4-2.2.2-2.1.2-.5-1.7c-.6-2-1-2-1.4-.3m-24.8 3c-.6 1.8-.8 2.1-1.7 2.1-2.7 0-3 .4-1.4 1.5l1.6 1.1-.5 1.8c-.8 2.2-.6 2.3 1.1.8l1.5-1.3 1.8 1.1 1.8 1-.7-1.8-.6-2 1.7-1.5 1.6-1.4-2 .2-2.2.2-.6-2-.7-1.9-.7 2.1m-24.6 2c-.6 1.8-.7 2-2.3 2.1-2.3.3-2.4.6-.7 1.6 1.5 1 1.5 1.3.6 3.9-.4.9.1 1.3.6.5l1.4-1.2 1-.8 1.7 1.2a6 6 0 0 0 1.7 1l-.6-1.8c-.8-2.2-.8-2 1-3.5l1.7-1.3h-4.4l-.5-1.9-.6-1.8-.6 2m-24.8 1.2-.5 2-2 .3c-2.3.3-2.3.2.2 2 .8.5.8.6.1 2.4l-.6 2.1 1.6-1.1c1.8-1.4 1.6-1.5 4.3.3l.9.6-.7-2-.6-1.8 1.5-1.3 1.6-1.3-2-.2-2-.1-.6-2-.7-2-.5 2m-24.8.9-.6 1.9-2.1.1-2.2.1 1.7 1.2c1.8 1.4 1.8 1.3 1 3.6-.6 1.8-.6 1.8 1.6.1l1.3-.9L85 266a6 6 0 0 0 1.7 1l-.6-1.8-.6-1.8 1.5-1.3 1.5-1.2-2-.2c-2-.1-2-.1-2.6-2l-.6-2-.6 2m260 12.5c-10.8.9-24.7 2.9-54 8a9976 9976 0 0 1-33.6 5.8c-66.9 11.3-126.5 17.4-171.1 17.4h-9.3v5.5c0 3-.1 6.5-.3 7.6l-.2 2.1 9.5-.2c63.4-1.5 107.2-6.2 189.2-20.4 55-9.6 64.9-11 76.3-11 10 0 14.3 1.5 15.5 5.4.2.8.3-1.6.3-7-.1-9.4-.2-9.7-3.3-11.5-3-1.6-10.6-2.3-19-1.7m-1.4 29.8a762 762 0 0 0-56.4 8.6c-59 10.3-84.5 14-120.8 17.8-29.3 3-47.8 4.2-77.9 4.8l-11.9.3v14.8l13.5-.2c56.2-1.2 104.8-6.5 182.3-19.9l32.4-5.6c44.7-7.6 58.7-7.9 61.8-1l.8 1.6v-7.7c0-10.1-.4-11-5.6-12.7a94 94 0 0 0-18.2-.8" fill="#f2f1f1" transform="translate(.1 -9.3)"/><path d="m340.8 137.2-6.4.8-7.2 1c-7.5 1-20.2 3-44.7 7.2-30.3 5.2-65.3 11-66.8 11l-.1 7.5v7.6l16.3-2.6 40.7-6.7c36.3-6.3 39.5-6.9 50-8.4 27.3-4 39-3.4 41.8 1.7l.8 1.5v-7.5c0-9.9-.4-10.8-5.2-12.3-3-1-12.3-1.4-19.2-.8m-.2 30c-9 .9-27.7 3.8-59.6 9.4-26.6 4.6-63.3 10.6-65 10.6-.2 0-.4 3.3-.4 7.4v7.4l1.3-.2 17.9-2.8c9.1-1.4 25.4-4.1 36.2-6 56.2-9.7 65.8-11.1 78.2-11.1 9.7 0 12.9.8 15.1 4.1l.9 1.3v-7c0-9.4-.7-10.9-6-12.5a76.7 76.7 0 0 0-18.6-.6m5 29.5c-11.9.7-24 2.6-73.1 11-13.5 2.4-31.8 5.5-40.6 6.8l-16.1 2.5-.1 7.3c-.1 6 0 7.3.4 7.3 2 0 37-5.7 65.1-10.6 64.7-11.3 80.2-12.2 83.4-4.8.5 1 .6.4.5-6.4-.1-8.5-.4-9.4-2.8-11a36 36 0 0 0-16.7-2.1m-7.4 30.3c-11.4 1.3-24.6 3.4-68.4 11a2617.2 2617.2 0 0 1-52.9 8.6l-1.3.2v14.8l.9-.2 15.3-2.4c14.9-2.3 24.5-4 57.2-9.6 55.8-9.7 71.9-10.5 75.4-4l.8 1.6v-6.8c0-9.5-.8-11.3-5.7-12.8-2.8-1-14.7-1.2-21.3-.4m6 29.2-6 .6c-8.5.9-28 3.9-52.2 8.2-88.7 15.6-140 21.5-196.7 22.5l-14.5.2v14.7h9.3c44.6 0 104.2-6.1 171.1-17.4a9976 9976 0 0 0 33.6-5.8c57.2-10 72-10.6 75.7-3.6.7 1.4.7 1.3.6-6.2-.1-9.8-.7-10.9-6.4-12.4-2-.6-11.4-1-14.5-.8m-7 30.4c-10.7 1.3-24.6 3.5-64.2 10.4-77.8 13.4-138.6 20.2-182.8 20.2-3 0-7.9.1-10.7.3l-5.1.2v14.8l11.9-.3c30.1-.6 48.6-1.8 77.9-4.8 36.3-3.8 61.7-7.5 120.8-17.8 60.5-10.5 76.4-11.4 79.6-4.3.5 1.2.6.6.5-6.3-.1-8.8-.3-9.4-3.5-11.1a55 55 0 0 0-24.4-1.3m3.2 29.4c-6 .6-25.2 3.5-37.8 5.6l-32.4 5.6c-77.5 13.4-126 18.7-182.4 19.9l-13.5.2.2 3.5c.4 5.8 2.4 9.6 6.4 11.8l2.1 1.2h47.6c154.2-.3 229.6-8.4 234.2-25.2.7-2.9.5-16.1-.4-18-1.9-4.2-10.6-5.9-24-4.6" fill="#d52828" transform="translate(.1 -9.3)"/><path d="M99.1 23.2c-24.3 3.6-61.4 37-79.4 71.5-3 5.8-3.1 5.5 2 5.4 20.3-.3 63.1-18.4 84.7-35.8 28-22.6 24-45.7-7.3-41m139.5 15.3-6.4.8c-25.2 3-58 13.2-83.6 25.8-57.5 28.4-73 65.4-41.6 99l3.4 3.7 2.9-.1a1112 1112 0 0 0 121.3-13.6c7.7-1.2 27-4.4 43-7.2 33-5.7 54-9 56.6-9 .7 0-4.7-17.7-7.8-25.8-10.9-27.7-36-61-51.6-68.5a81 81 0 0 0-36.2-5m-230.7 84a171.4 171.4 0 0 0 1.3 107.5 170.5 170.5 0 0 0 65.3 84.6c.2 0 .3-9.3.3-20.8 0-19.4 0-20.8.7-21 .7-.1.7-.1 0-.2-.7 0-.7-2-.7-35.3V202l-4.5-7.1a409.3 409.3 0 0 0-40.9-56.2c-9-10.7-17.4-21-18.3-22.5-.8-1.2-.9-1-3.2 6.4m179 47.6c.4 0 .6.4.4.6-.1.2 0 .3.2.1.8-.4.6-1-.4-1-.7 0-.7.1-.2.3m28.5 9.5c0 4.2 0 5.8.1 3.7a132.8 132.8 0 0 0-.1-3.7m-54.2-6.8 1 .3c.6.1 1 0 1-.2 0-.1-.5-.3-1-.3-.6 0-1 0-1 .2m-26.9 2.3c.2.2.8.3 1.4.2.8-.1.7-.2-.4-.3-.8-.2-1.2-.1-1 .1m-5.6.6h1.6c.4-.1 0-.2-.9-.2s-1.2 0-.7.2m-21.9.4c0 .3-.4.5-.9.5-.7 0-.8.1-.2.3.8.2 1.8-.5 1.4-1-.2-.1-.3 0-.3.2m73.2.7c-.3.3-.7.5-.8.4-.2-.1-.4 0-.4.2 0 .6.6.5 1.4-.4.4-.4.6-.8.5-.8l-.7.6m-101.3.9h1.6c.4-.1 0-.2-.9-.2s-1.2 0-.7.2m69.7 6.7 1.2.3c.6 0 1 0 1-.2-.2-.3-2.2-.5-2.2-.1m-33.6 2.4.7.7c.4.3.5.3.4 0-.2-.2 0-.5.4-.6.4-.1.3-.2-.4-.3-.6 0-1.1 0-1.1.2m-21.8.6-1.6.3h1.5c.8 0 1.6 0 1.7-.3l.1-.3-1.7.3m67.8 6.2 1.2.3c.6 0 1 0 1-.2-.2-.3-2.2-.5-2.2-.1m44 .8c-.3.3-.7.5-.8.4-.2-.1-.4 0-.4.2 0 .6.6.5 1.4-.4.4-.4.6-.8.5-.8l-.7.6m-52.6.1c0 .2.4.3 1 .2l1.2-.3c0-.3-2-.2-2.2.1m-24.7 2c-.1.2.5.2 1.3.2l1.6-.3c0-.3-2.8-.2-3 .1m-20.6.4c0 .3-.6.5-1.3.6-1.3 0-1.3 0-.2.2 1.2.2 2.3-.4 1.8-1-.2-.1-.3 0-.3.2m73.2.7c-.3.3-.6.5-.8.4-.2-.1-.4 0-.4.2 0 .6.6.5 1.4-.4.4-.4.6-.8.5-.8l-.7.6m9.2 3.4c0 .2.2.5.5.6.2.2.3.1.2-.1-.2-.2 0-.5.4-.6.5-.2.5-.2-.2-.3-.5 0-.9.2-.9.4m26.2 8.4c0 4.3 0 6 .1 3.9a140.9 140.9 0 0 0-.1-3.9m-23-3c-.3.3-.6.5-.8.4-.2-.1-.4 0-.4.2 0 .6.6.5 1.4-.4.4-.4.6-.8.5-.8l-.7.6m-77.6 1.2.7.7c.3.3.5.3.4 0-.2-.2 0-.5.2-.6.3-.1.1-.3-.4-.3s-.9 0-.9.2m-22.3.5c-2 .1-2.6.5-1.6 1.1.2.2.3.1.1-.1-.2-.4.3-.5 1.6-.5 1 0 1.9-.2 2-.4l.1-.3-2.2.2m118.6.4 1 .2-1.2 1.2-1.1 1.3 1.3-1.2c1.4-1.2 1.4-1.8 0-1.7-.9 0-.9 0 0 .2m-9.5 1.3c0 .2.2.5.5.6.2.2.3.1.2-.1-.2-.2 0-.5.4-.6.5-.2.5-.2-.2-.3-.5 0-.9.2-.9.4m3.4 5.2c-.4.4-.9.7-1.1.5-.3-.1-.3 0-.1.3.2.4 2.2-.9 2.2-1.5 0-.3-.3 0-1 .7m-53 .3c0 .2.5.3 1 .2l1-.3-1-.2c-.6 0-1 .2-1 .3m-23.9 2h1.4c.4-.1 0-.2-.7-.2-.8 0-1 0-.7.2m-23.8 1.2h1.6c.4-.1 0-.2-.9-.2s-1.2 0-.7.2m60.1 6c0 .2.5.3 1 .2l1-.3c0-.1-.4-.2-1-.2-.5 0-1 .2-1 .3m-74 4.8c0 .2.6.3 1.4.2l1.4-.3c0-.1-.6-.2-1.4-.2-.8 0-1.4.1-1.4.3m121 1-1.2 1.3 1.3-1.2a10 10 0 0 0 1.3-1.3c0-.3-.3 0-1.4 1.2m4 8.7c0 4.3 0 6 .1 3.9a140.9 140.9 0 0 0-.1-3.9m-63.4-2.9c0 .2.5.3 1 .2l1-.3-1-.2c-.6 0-1 .2-1 .3m-49.2 3.3c0 .2.2.5.5.6.2.2.3.1.2-.1-.2-.3.2-.5 1-.6 1.3-.2 1.3-.2-.2-.2-.8 0-1.5 0-1.5.3m71.6 5.8-1 1.2 1.2-1 1-1.3c-.1-.1-.6.4-1.2 1m-2.7-.6h1.4c.4-.1 0-.2-.7-.2-.8 0-1 0-.7.2m21 3.3c-.5.4-1 .7-1.2.6-.1-.2-.3 0-.3.2 0 .7.6.5 1.6-.6l.7-1-.9.8m-65.4 11 .7.7c.3.3.5.3.4 0-.2-.2 0-.5.2-.6.3-.1 0-.3-.4-.3-.5 0-.9 0-.9.2m-14.7.9c.4 0 .6.3.5.5-.4.6 0 .5.6-.2.4-.5.3-.6-.7-.6-.6 0-.8.2-.4.3m-10.1.3.7.7c.4.3.5.3.4 0-.2-.3 0-.5.6-.6.7-.1.5-.2-.4-.2h-1.3m-15.5.6c1 0 1.4.3 1.2.6-.1.2 0 .3.2.1 1-.6.4-1-1.2-1l-1.7.1 1.5.2m57.2 9.2h1.4c.4-.1 0-.2-.7-.2-.8 0-1 0-.7.2m-4.8.4h1.4c.4-.1 0-.2-.7-.2-.8 0-1 0-.7.2m-5.2.4h1.4c.4-.1 0-.2-.7-.2-.8 0-1 0-.7.2m-5.8.4h1.6c.4-.1 0-.2-.9-.2s-1.2 0-.7.2m-5.8.4h1.4c.4-.1 0-.2-.7-.2-.8 0-1 0-.7.2m-7.6.4h1.4c.4-.1 0-.2-.7-.2-.8 0-1 0-.7.2m-9.4.4h1.6c.4-.1 0-.2-.9-.2s-1.2 0-.7.2m-12.8.4h2.4c.6-.1 0-.2-1.3-.2s-1.8.1-1 .2" fill="#5393f3" transform="translate(.1 -9.3)"/></g></svg>