<svg width="200" height="200" viewBox="0 0 200 200" fill="none" xmlns="http://www.w3.org/2000/svg">
<path d="M100 200C155.228 200 200 155.228 200 100C200 44.7715 155.228 0 100 0C44.7715 0 0 44.7715 0 100C0 155.228 44.7715 200 100 200Z" fill="#14D1EC"/>
<path fill-rule="evenodd" clip-rule="evenodd" d="M25 138H56.6619L71.4375 123.224H58.7727L96.7382 85.551V122.354H110.917V72.575C110.917 70.9727 110.641 69.3431 109.749 68.0277C108.007 65.4605 105.826 64.4152 103.698 64.1721C99.1611 63.6536 95.3937 67.2652 92.1841 70.5937L25 138Z" fill="white"/>
<path d="M146.131 48.4716L112.407 83.4431V102.977L150.978 63.1357V123.948H91.2321L84.8811 111.349L59.9497 137.393H157.15C162.087 136.761 164.35 132.384 164.864 130.275V50.4528C164.864 48.8506 164.588 47.2209 163.696 45.9055C161.954 43.3383 159.773 42.2931 157.645 42.05C153.108 41.5315 149.341 45.1431 146.131 48.4716Z" fill="white"/>
</svg>
