<svg width="38" height="34" viewBox="0 0 38 34" fill="none" xmlns="http://www.w3.org/2000/svg">
<path fill-rule="evenodd" clip-rule="evenodd" d="M10.721 1.53237C12.8068 -0.510791 16.1435 -0.510791 18.2293 1.53237L23.1671 6.36948C25.3146 8.47313 25.3146 11.9305 23.1671 14.0341L14.5616 22.464L20.7333 28.5098C21.9092 29.6616 21.9286 31.5486 20.7768 32.7244C19.6249 33.9003 17.7379 33.9197 16.5621 32.7679L1.6106 18.1216C-0.536863 16.0179 -0.536868 12.5605 1.6106 10.4569L10.721 1.53237ZM10.3026 18.2919L18.5612 10.2018L14.4751 6.19913L6.21654 14.2892L10.3026 18.2919Z" fill="#3CEAAA"/>
<path fill-rule="evenodd" clip-rule="evenodd" d="M23.1384 5.61981C25.2241 3.5766 28.5608 3.5766 30.6466 5.61981L35.5845 10.4569C37.7319 12.5605 37.7319 16.0179 35.5845 18.1215L20.633 32.7679C19.4571 33.9198 17.5701 33.9003 16.4183 32.7244C15.2664 31.5486 15.2859 29.6616 16.4617 28.5097L22.6334 22.464L18.2005 18.1215C16.053 16.0179 16.053 12.5605 18.2005 10.4569L23.1384 5.61981ZM26.8924 18.2919L30.9785 14.2892L26.8924 10.2865L22.8064 14.2892L26.8924 18.2919Z" fill="#03BCE4"/>
<path opacity="0.95" d="M22.8041 14.2993L18.4635 10.1765L14.3003 14.2652L18.5378 18.481L22.8041 14.2993Z" fill="#00A4E1"/>
</svg>
