<svg width="200" height="200" viewBox="0 0 200 200" fill="none" xmlns="http://www.w3.org/2000/svg">
<path d="M100 200C155.228 200 200 155.228 200 100C200 44.7715 155.228 0 100 0C44.7715 0 0 44.7715 0 100C0 155.228 44.7715 200 100 200Z" fill="black"/>
<path d="M72.5727 109.577C76.5818 109.577 80.2409 108.241 83.2 105.95L58.8273 81.5773C56.5364 84.5046 55.2 88.1955 55.2 92.2046C55.2318 101.782 62.9954 109.577 72.5727 109.577ZM145.055 92.1727C145.055 88.1637 143.718 84.5046 141.427 81.5455L117.055 105.918C119.982 108.209 123.673 109.545 127.682 109.545C137.259 109.577 145.055 101.782 145.055 92.1727Z" fill="white"/>
<path d="M157.336 65.6682L146.55 76.4546C150.114 80.7182 152.277 86.1909 152.277 92.2046C152.277 105.759 141.236 116.8 127.682 116.8C121.732 116.8 116.227 114.636 111.932 111.073L100.127 122.877L88.3227 111.073C84.0591 114.636 78.5864 116.8 72.5727 116.8C59.0182 116.8 47.9773 105.759 47.9773 92.2046C47.9773 86.2546 50.1409 80.75 53.7046 76.4546L48.1682 70.9182L42.9182 65.6682C36.8091 75.7864 33.2773 87.6228 33.2773 100.318C33.2773 137.227 63.1864 167.168 100.127 167.168C137.068 167.168 166.977 137.227 166.977 100.318C166.977 87.6228 163.445 75.7864 157.336 65.6682Z" fill="white"/>
<path d="M148.491 54.1818C136.336 41.4227 119.155 33.4682 100.127 33.4682C81.1 33.4682 63.9182 41.4227 51.7636 54.1818C50.1091 55.9318 48.55 57.7454 47.0864 59.6545L100.127 112.727L153.168 59.6545C151.736 57.7454 150.145 55.9318 148.491 54.1818V54.1818ZM100.127 42.2182C115.782 42.2182 130.291 48.2318 141.236 59.2409L100.127 100.35L59.0182 59.2409C69.9636 48.2318 84.4727 42.2182 100.127 42.2182V42.2182Z" fill="white"/>
</svg>
