<svg width="200" height="200" viewBox="0 0 200 200" fill="none" xmlns="http://www.w3.org/2000/svg">
<path d="M100 200C155.228 200 200 155.228 200 100C200 44.7715 155.228 0 100 0C44.7715 0 0 44.7715 0 100C0 155.228 44.7715 200 100 200Z" fill="#FF4A4A"/>
<g clip-path="url(#clip0_104:22)">
<path d="M124.042 122H116.852C116.532 122 116.214 121.937 115.918 121.814C115.621 121.69 115.352 121.509 115.124 121.28C114.897 121.052 114.717 120.78 114.594 120.481C114.471 120.182 114.407 119.862 114.407 119.538V100.405L101.787 108.373C101.267 108.701 100.667 108.875 100.055 108.875C99.442 108.875 98.8418 108.701 98.3223 108.373L85.7001 100.404V119.538C85.6996 119.862 85.636 120.182 85.5128 120.481C85.3896 120.78 85.2093 121.052 84.9822 121.28C84.7551 121.509 84.4856 121.69 84.1892 121.814C83.8927 121.937 83.5751 122 83.2544 122H76.0647C75.744 122 75.4264 121.937 75.1299 121.814C74.8334 121.69 74.564 121.509 74.3368 121.28C74.1097 121.052 73.9294 120.78 73.8063 120.481C73.6831 120.182 73.6194 119.862 73.619 119.538V82.6602C73.6207 82.0616 73.784 81.4749 74.0913 80.963C74.3986 80.4511 74.8382 80.0335 75.3629 79.7551C75.8876 79.4766 76.4776 79.3478 77.0693 79.3826C77.6611 79.4173 78.2322 79.6143 78.7214 79.9523L98.6722 93.7122C99.0795 93.9933 99.5613 94.1437 100.055 94.1437C100.548 94.1437 101.03 93.9933 101.437 93.7122L121.384 79.9523C121.873 79.6136 122.444 79.416 123.036 79.3807C123.628 79.3455 124.219 79.4741 124.744 79.7525C125.269 80.0309 125.708 80.4487 126.016 80.9608C126.323 81.473 126.486 82.0601 126.488 82.6589V119.538C126.487 119.862 126.424 120.182 126.3 120.481C126.177 120.78 125.997 121.052 125.77 121.28C125.543 121.509 125.273 121.69 124.977 121.814C124.68 121.937 124.363 122 124.042 122" fill="white"/>
<path d="M62.7874 121.672H18.2449C17.8191 121.672 17.3975 121.588 17.004 121.424C16.6105 121.26 16.2528 121.019 15.9515 120.715C15.6502 120.412 15.411 120.051 15.2478 119.654C15.0845 119.257 15.0003 118.831 15 118.401V81.4522C15.0003 81.1299 15.0635 80.8107 15.186 80.513C15.3085 80.2153 15.4878 79.9449 15.7137 79.7172C15.9397 79.4895 16.2079 79.309 16.5029 79.1859C16.798 79.0628 17.1141 78.9997 17.4334 79H24.5895C24.9087 78.9997 25.2249 79.0628 25.5199 79.1859C25.815 79.309 26.0831 79.4895 26.3091 79.7172C26.5351 79.9449 26.7144 80.2153 26.8369 80.513C26.9593 80.8107 27.0225 81.1299 27.0228 81.4522V109.558H54.0094V81.4522C54.0096 81.1296 54.0727 80.8102 54.1953 80.5123C54.3179 80.2143 54.4974 79.9437 54.7237 79.7159C54.9499 79.4882 55.2184 79.3077 55.5139 79.1848C55.8093 79.062 56.1258 78.9992 56.4453 79H63.6014C63.9206 78.9997 64.2368 79.0628 64.5318 79.1859C64.8269 79.309 65.095 79.4895 65.321 79.7172C65.547 79.9449 65.7263 80.2153 65.8488 80.513C65.9712 80.8107 66.0344 81.1299 66.0347 81.4522V118.402C66.0343 118.832 65.9499 119.258 65.7866 119.655C65.6233 120.052 65.3841 120.412 65.0828 120.716C64.7815 121.019 64.4239 121.26 64.0305 121.424C63.6371 121.588 63.2155 121.672 62.7899 121.672" fill="white"/>
<path d="M137.213 79H181.76C182.186 78.9995 182.607 79.0837 183.001 79.2477C183.394 79.4117 183.752 79.6524 184.053 79.956C184.354 80.2596 184.594 80.6201 184.757 81.017C184.92 81.4139 185.004 81.8394 185.005 82.2692V119.223C185.005 119.546 184.941 119.865 184.819 120.162C184.697 120.46 184.517 120.731 184.291 120.958C184.065 121.186 183.797 121.367 183.502 121.49C183.207 121.613 182.891 121.676 182.572 121.675H175.413C175.094 121.676 174.777 121.613 174.482 121.49C174.186 121.367 173.918 121.187 173.692 120.959C173.466 120.731 173.286 120.461 173.163 120.163C173.041 119.865 172.978 119.546 172.977 119.223V92.7473C172.975 92.3142 172.803 91.8995 172.499 91.5941C172.195 91.2888 171.783 91.1177 171.354 91.1183H147.617C147.188 91.1177 146.777 91.2888 146.473 91.5941C146.168 91.8995 145.996 92.3142 145.994 92.7473V119.223C145.994 119.546 145.931 119.865 145.808 120.162C145.686 120.46 145.507 120.731 145.281 120.958C145.055 121.186 144.786 121.367 144.491 121.49C144.196 121.613 143.88 121.676 143.561 121.675H136.401C136.082 121.676 135.766 121.613 135.471 121.49C135.176 121.367 134.907 121.186 134.682 120.958C134.456 120.731 134.276 120.46 134.154 120.162C134.031 119.865 133.968 119.546 133.968 119.223V82.2692C133.968 81.8394 134.053 81.4139 134.216 81.017C134.379 80.6201 134.618 80.2596 134.92 79.956C135.221 79.6524 135.579 79.4117 135.972 79.2477C136.365 79.0837 136.787 78.9995 137.213 79" fill="white"/>
<path d="M153.471 101.457V108.733C153.472 109.054 153.537 109.372 153.66 109.668C153.783 109.964 153.963 110.233 154.189 110.459C154.415 110.685 154.683 110.864 154.978 110.986C155.273 111.107 155.588 111.169 155.906 111.167H163.061C163.38 111.169 163.695 111.107 163.99 110.986C164.284 110.864 164.552 110.685 164.779 110.459C165.005 110.233 165.185 109.964 165.308 109.668C165.431 109.372 165.496 109.054 165.497 108.733V101.457C165.496 101.136 165.431 100.818 165.308 100.522C165.185 100.225 165.005 99.9566 164.779 99.7305C164.552 99.5045 164.284 99.3256 163.99 99.2041C163.695 99.0827 163.38 99.021 163.061 99.0226H155.906C155.588 99.021 155.273 99.0827 154.978 99.2041C154.683 99.3256 154.415 99.5045 154.189 99.7305C153.963 99.9566 153.783 100.225 153.66 100.522C153.537 100.818 153.472 101.136 153.471 101.457" fill="white"/>
</g>
<defs>
<clipPath id="clip0_104:22">
<rect width="170" height="43" fill="white" transform="translate(15 79)"/>
</clipPath>
</defs>
</svg>
