<svg width="127" height="135" viewBox="0 0 127 135" fill="none" xmlns="http://www.w3.org/2000/svg">
<path fill-rule="evenodd" clip-rule="evenodd" d="M72.2786 2.11261L116.547 24.7756C119.698 26.3778 122.344 28.8213 124.189 31.8348C126.034 34.8483 127.007 38.3139 127 41.8466V52.1784H110.67V41.8466C110.671 41.3123 110.523 40.7883 110.244 40.3327C109.965 39.8771 109.564 39.5078 109.088 39.2656L64.8235 16.6026C64.4125 16.3928 63.9575 16.2835 63.496 16.2835C63.0344 16.2835 62.5794 16.3928 62.1684 16.6026L17.9002 39.2656C17.4242 39.5083 17.0248 39.8779 16.7461 40.3334C16.4675 40.789 16.3205 41.3127 16.3215 41.8466V52.1784H-1.57954e-05V41.8466C-0.00761327 38.3143 0.964851 34.849 2.8094 31.8356C4.65394 28.8221 7.29838 26.3783 10.4491 24.7756L54.7213 2.11261C57.4388 0.72406 60.4476 0 63.4999 0C66.5523 0 69.561 0.72406 72.2786 2.11261ZM77.4653 66.8118C77.4653 59.1247 71.1982 52.8714 63.496 52.8714C59.7938 52.8725 56.2432 54.3409 53.6235 56.9544C51.0038 59.5679 49.5289 63.1131 49.5226 66.8118C49.5226 74.4989 55.7897 80.7521 63.496 80.7521C67.1971 80.749 70.746 79.2797 73.3647 76.6666C75.9833 74.0534 77.4579 70.5095 77.4653 66.8118ZM109.096 95.736C109.572 95.4937 109.972 95.1242 110.25 94.6686C110.529 94.2129 110.676 93.689 110.674 93.155V82.8233H127V93.159C127.007 96.6902 126.035 100.154 124.191 103.167C122.347 106.18 119.704 108.623 116.555 110.226L72.2786 132.889C69.56 134.274 66.5518 134.998 63.4999 135C60.4481 134.998 57.44 134.274 54.7213 132.889L10.4451 110.226C7.29546 108.623 4.65198 106.18 2.80815 103.167C0.964326 100.155 -0.00770264 96.6903 -1.57954e-05 93.159V82.8233H16.3215V93.159C16.3215 94.2504 16.9275 95.2381 17.9002 95.736L55.3352 114.898V95.9112C42.5818 92.3505 33.1971 80.6565 33.1971 66.8118C33.1971 50.1431 46.7917 36.5811 63.496 36.5811C80.2002 36.5811 93.7948 50.1431 93.7948 66.8118C93.7948 80.6565 84.4101 92.3505 71.6567 95.9112V114.902L109.096 95.736Z" fill="#356DF3"/>
</svg>
