<svg width="200" height="200" viewBox="0 0 200 200" fill="none" xmlns="http://www.w3.org/2000/svg">
<path d="M100 200C155.228 200 200 155.228 200 100C200 44.7715 155.228 0 100 0C44.7715 0 0 44.7715 0 100C0 155.228 44.7715 200 100 200Z" fill="#F3B63B"/>
<path d="M100 10C50.1786 10 10 50.1786 10 100C10 149.821 50.1786 190 100 190C149.821 190 190 149.821 190 100C190 50.5 149.821 10 100 10Z" fill="#F3B63B"/>
<path d="M135.549 68.831L93.296 126.296H135.549V146.577H108.225V163.197H91.324V146.577H64V131.085L106.254 73.901H64V53.6197H91.324V37H108.225V53.6197H135.549V68.831Z" fill="white"/>
</svg>
