<svg width="256" height="256" viewBox="0 0 256 256" fill="none" xmlns="http://www.w3.org/2000/svg">
<path d="M128 256C119.334 256.002 110.691 255.131 102.2 253.4C85.8269 250.046 70.2745 243.501 56.43 234.139C35.8506 220.247 19.7417 200.686 10.055 177.824C6.78332 170.082 4.28614 162.034 2.59999 153.8C-0.867275 136.777 -0.867275 119.23 2.59999 102.207C5.95349 85.834 12.498 70.2816 21.86 56.437C35.7519 35.8565 55.3144 19.7464 78.177 10.059C85.9188 6.78586 93.9658 4.28733 102.2 2.6C119.223 -0.86746 136.77 -0.86746 153.793 2.6C170.166 5.95344 185.718 12.4979 199.563 21.86C220.142 35.7519 236.251 55.314 245.938 78.176C249.212 85.9181 251.712 93.9653 253.4 102.2C256.867 119.223 256.867 136.77 253.4 153.793C250.047 170.166 243.502 185.719 234.14 199.563C220.247 220.142 200.686 236.251 177.824 245.938C170.082 249.212 162.035 251.711 153.8 253.4C145.309 255.131 136.666 256.002 128 256V256ZM128 13.713C120.264 13.7113 112.547 14.4892 104.967 16.035C90.3478 19.0289 76.4613 24.8724 64.1 33.232C45.728 45.637 31.3473 63.1033 22.7 83.515C19.7777 90.4284 17.5472 97.6141 16.041 104.967C12.9452 120.166 12.9452 135.833 16.041 151.032C19.036 165.651 24.8806 179.537 33.241 191.898C45.6449 210.272 63.1109 224.655 83.523 233.305C90.4368 236.227 97.6228 238.457 104.976 239.963C120.175 243.059 135.842 243.059 151.041 239.963C165.66 236.969 179.547 231.125 191.907 222.763C210.276 210.358 224.654 192.894 233.3 172.485C236.222 165.571 238.453 158.385 239.959 151.032C243.055 135.833 243.055 120.166 239.959 104.967C236.964 90.3483 231.119 76.4625 222.759 64.102C210.357 45.7305 192.894 31.3492 172.485 22.7C165.571 19.7779 158.385 17.5474 151.032 16.041C143.452 14.4936 135.736 13.714 128 13.714V13.713Z" fill="url(#paint0_linear)"/>
<g clip-path="url(#clip0)">
<path d="M128.07 226.964C178.642 226.964 219.639 184.316 219.639 131.707C219.639 79.0981 178.642 36.45 128.07 36.45C77.4971 36.45 36.5 79.0981 36.5 131.707C36.5 184.316 77.4971 226.964 128.07 226.964Z" fill="#7866D5"/>
<path d="M165.137 85.355C168.236 85.758 171.465 86.0267 174.565 86.5641C180.635 87.7733 182.701 90.9978 181.668 97.4468C181.41 99.8652 179.602 101.746 177.277 102.149C175.856 102.418 174.306 102.552 172.886 102.418C152.738 102.418 132.719 102.552 112.571 102.552C109.601 102.552 106.501 102.821 103.53 103.358C93.5857 104.971 89.7111 109.27 88.9362 119.75C88.5487 124.586 88.5487 124.586 93.3274 124.586H175.727C177.019 124.586 178.181 124.989 179.343 125.661C182.96 128.08 182.056 131.976 181.926 135.469C181.797 138.291 180.118 139.903 177.277 140.44C176.115 140.709 174.952 140.709 173.661 140.709H91.5192C88.5487 140.709 88.5487 140.709 88.807 143.799C88.9362 146.621 89.1945 149.442 89.8402 152.263C91.1318 157.369 94.1023 160.593 99.1393 162.071C104.564 163.684 110.246 163.952 115.8 164.087H174.565C177.019 164.087 179.343 164.355 180.893 166.774C183.347 170.804 182.056 176.044 178.181 178.597C177.664 179 177.148 179.269 176.502 179.403C172.24 180.881 167.849 181.15 163.328 181.284C144.859 181.687 126.52 181.687 108.18 181.284C102.497 181.15 96.8145 180.478 91.2609 179.269C78.2165 176.447 71.6296 169.461 69.434 155.757C68.9174 152.666 68.6591 149.442 68.2717 146.217V121.228C68.53 118.809 68.7883 116.256 69.0466 113.838C70.7256 98.3873 77.4415 90.7291 92.0358 87.2359C97.202 86.0267 102.626 85.758 107.793 85.2206L165.137 85.355V85.355Z" fill="white"/>
<path d="M135.69 183.971C126.391 183.971 117.221 183.837 108.051 183.702C102.239 183.568 96.4271 182.896 90.7443 181.553C76.6666 178.462 69.4341 170.67 67.1093 156.16C66.7218 153.876 66.4635 151.592 66.3344 149.442C66.2052 148.501 66.0761 147.561 65.9469 146.486V120.959L66.2052 118.54C66.3344 116.794 66.5927 115.182 66.7218 113.569C68.53 97.0438 76.0209 88.5795 91.6484 84.9519C95.7813 84.0114 99.785 83.6083 103.789 83.2053L107.663 82.8022H165.524C166.428 82.9366 167.461 83.0709 168.365 83.0709C170.561 83.3396 172.757 83.474 175.081 84.0114C182.443 85.4893 185.284 89.7886 183.993 97.5812C183.605 100.94 181.022 103.761 177.535 104.299C175.985 104.568 174.436 104.702 172.757 104.702C152.738 104.836 132.59 104.971 112.571 104.971C109.73 104.971 106.759 105.239 103.918 105.777C95.0064 107.255 92.0359 110.614 91.2609 120.018C91.2609 120.824 91.1318 121.631 91.1318 122.302H175.727C177.406 122.302 179.085 122.84 180.506 123.646C184.897 126.602 184.509 131.035 184.251 134.26C184.251 134.663 184.122 135.2 184.122 135.603C183.864 139.365 181.668 141.918 177.664 142.724C176.244 142.993 174.952 142.993 173.661 142.993H91.1318V143.53C91.2609 146.352 91.5192 149.039 92.165 151.726C93.1982 155.891 95.6521 158.444 99.785 159.653C105.339 161.265 111.021 161.534 115.929 161.534C131.169 161.668 146.668 161.668 161.779 161.668H174.694C176.631 161.668 180.635 161.668 182.96 165.564C184.509 168.117 184.897 171.073 184.251 173.894C183.605 176.716 181.926 179.134 179.473 180.746C178.827 181.15 178.052 181.553 177.277 181.821C172.498 183.434 167.59 183.702 163.458 183.837C154.288 183.837 144.989 183.971 135.69 183.971V183.971ZM70.5964 146.083C70.7256 147.024 70.8547 147.964 70.8547 148.905L71.6297 155.354C73.6961 167.983 79.508 174.163 91.6484 176.85C97.0728 178.059 102.626 178.731 108.18 178.866C126.391 179.269 144.989 179.269 163.328 178.866C167.074 178.731 171.594 178.462 175.727 177.119C176.115 176.985 176.502 176.716 176.889 176.582C178.181 175.641 179.214 174.297 179.602 172.685C179.989 171.073 179.731 169.461 178.827 167.983C178.052 166.774 177.019 166.371 174.565 166.371H161.649C146.668 166.371 131.04 166.371 115.8 166.236C110.634 166.236 104.564 165.968 98.4935 164.087C92.6816 162.474 89.0653 158.578 87.6446 152.532C86.9989 149.576 86.6114 146.486 86.6114 143.53V143.396C86.4823 141.515 86.3531 140.172 87.3863 138.962C88.4196 137.753 89.8402 137.753 91.6484 137.753H173.79C174.823 137.753 175.985 137.753 177.019 137.484C179.085 137.081 179.602 136.141 179.731 134.797C179.731 134.26 179.86 133.857 179.86 133.319C180.118 129.961 180.118 128.348 178.31 127.139C177.664 126.736 176.76 126.467 175.985 126.467H93.3274C90.486 126.467 88.807 126.467 87.5155 125.124C86.224 123.78 86.4823 121.899 86.6114 119.078C87.5155 107.523 92.165 102.284 103.143 100.537C106.243 99.9996 109.342 99.7309 112.571 99.5965C132.719 99.5965 152.738 99.4622 172.886 99.4622C174.306 99.4622 175.598 99.4622 176.889 99.1934C178.181 99.0591 179.214 97.9843 179.343 96.6407C180.247 91.2665 178.956 89.5199 174.048 88.4451C171.982 88.042 169.915 87.7733 167.849 87.639C166.945 87.5046 165.911 87.3703 165.007 87.3703H107.922L104.047 87.7733C100.043 88.1764 96.2979 88.4451 92.4233 89.3856C78.8622 92.8788 72.9212 99.7309 71.3713 114.241C71.2422 115.853 70.9839 117.466 70.8547 119.212L70.5964 121.496V146.083V146.083Z" fill="white"/>
</g>
<defs>
<linearGradient id="paint0_linear" x1="215.808" y1="34.5595" x2="52.736" y2="226.816" gradientUnits="userSpaceOnUse">
<stop stop-color="#B6509E"/>
<stop offset="1" stop-color="#2EBAC6"/>
</linearGradient>
<clipPath id="clip0">
<rect width="183.01" height="190.38" fill="white" transform="translate(36.5 36.45)"/>
</clipPath>
</defs>
</svg>
