<svg width="200" height="200" viewBox="0 0 200 200" fill="none" xmlns="http://www.w3.org/2000/svg">
<path d="M174.963 49.6408L174.239 49.2786C173.997 49.1579 173.756 48.9164 173.514 48.7956L107.227 10.4001C106.503 10.0378 105.899 9.67562 105.175 9.43414C101.553 7.50229 97.2059 7.50229 93.7045 9.55488L51.5659 33.8238L25.3652 48.7956C25.1237 48.9164 24.7615 49.1578 24.52 49.3993L24.037 49.6408C20.4148 51.6934 18.1207 55.6779 18.1207 59.9038V138.385C18.1207 143.456 20.777 148.165 25.1237 150.701L93.5837 190.062C97.2059 192.115 101.673 192.115 105.296 190.062L174.842 149.976C178.464 147.924 180.759 143.939 180.759 139.713V59.783C180.879 55.5571 178.585 51.6934 174.963 49.6408Z" fill="#EC1966"/>
<path d="M18 61.5941L18.7244 138.265C18.7244 143.456 21.6222 148.286 26.0896 150.822L92.3763 189.096C94.7911 190.425 97.8096 189.7 99.1378 187.285C99.6208 186.561 99.8622 185.595 99.8622 184.75L99.0171 102.646C99.0171 100.835 98.0511 99.2653 96.4815 98.4201L25.2444 57.3682C24.52 56.8852 23.6748 56.7645 22.8296 56.7645C20.1733 56.6438 18 58.8171 18 61.5941C18 61.5941 18 61.4734 18 61.5941Z" fill="#D4165C"/>
<path d="M173.756 57.1267L101.553 98.2993C99.983 99.1445 99.017 100.835 99.017 102.646L99.8622 184.87C99.8622 187.648 102.156 189.821 104.813 189.821C105.658 189.821 106.624 189.579 107.348 189.096L173.756 150.822C178.223 148.165 181 143.336 181 138.144V61.3527C181 58.6964 178.827 56.523 176.17 56.4023C175.325 56.523 174.48 56.7645 173.756 57.1267Z" fill="#BD1452"/>
<path d="M103.967 65.9409C101.19 65.9409 98.2926 65.458 95.7571 64.3713C95.6363 64.3713 95.5156 64.2505 95.3948 64.1298L72.3334 51.2105C70.7637 50.2446 70.2808 48.192 71.2467 46.6224C72.2126 45.1735 74.0237 44.5698 75.5934 45.415L98.4134 58.3342C100.104 59.0587 102.036 59.3002 103.847 59.3002C109.28 59.3002 113.385 56.6439 113.385 54.2291C113.264 52.9009 112.419 51.6935 111.212 51.0898L91.7726 39.8609C90.0823 39.0157 89.4786 36.9631 90.4445 35.3935C91.2897 33.7031 93.3423 33.0994 94.9119 34.0654C95.0326 34.0654 95.0326 34.1861 95.1534 34.1861L114.593 45.2942C114.593 45.2942 114.713 45.415 114.834 45.415C117.973 47.2261 120.026 50.6068 120.147 54.2291C120.147 60.8698 113.023 65.9409 103.967 65.9409ZM134.515 148.286C132.583 148.286 131.134 146.716 131.134 144.905L130.893 112.064C130.893 110.132 132.342 108.562 134.273 108.562C135.36 108.562 136.326 109.045 136.93 109.77L150.09 124.862L149.97 102.163C149.97 100.231 151.539 98.7824 153.35 98.7824C155.162 98.7824 156.731 100.352 156.731 102.163L156.852 133.918C156.852 135.85 155.403 137.419 153.471 137.419C152.384 137.419 151.419 136.936 150.815 136.212L137.775 121.119L137.896 144.785C137.896 146.716 136.447 148.286 134.515 148.286ZM75.2311 114.599L46.2534 98.2994C44.4422 97.3335 42.1482 97.9372 41.1822 99.7483C40.82 100.352 40.6993 100.956 40.6993 101.559L40.82 144.302C40.82 146.354 42.5104 148.045 44.563 148.045C46.6156 148.045 48.3059 146.354 48.3059 144.302V130.658L66.2963 140.559C68.1074 141.525 70.4015 140.8 71.3674 138.989C72.3334 137.178 71.6089 135.005 69.9185 134.039L48.3059 122.206V107.959L71.4882 121.119C73.2993 122.085 75.5934 121.482 76.68 119.671C77.7667 117.859 77.0423 115.565 75.2311 114.599Z" fill="white"/>
</svg>
