<svg width="200" height="200" viewBox="0 0 200 200" fill="none" xmlns="http://www.w3.org/2000/svg">
<path d="M100 200C155.228 200 200 155.228 200 100C200 44.7715 155.228 0 100 0C44.7715 0 0 44.7715 0 100C0 155.228 44.7715 200 100 200Z" fill="black"/>
<path d="M35 34V166.584H157.751V151.723H49.7003V48.8609H157.751V34H35Z" fill="white"/>
<path d="M169.945 84.9518C169.945 81.8016 168.726 79.062 166.287 76.7339C163.848 74.4054 160.461 73.2409 156.058 73.2409C152.332 73.2409 149.419 73.9943 147.251 75.5694C145.083 77.1445 143.999 79.1993 143.999 81.8016C143.999 83.1712 144.27 84.4039 144.812 85.4997C145.354 86.5955 146.235 87.5541 147.522 88.4444C148.809 89.3347 150.503 90.0881 152.67 90.7729C154.77 91.4577 157.48 92.0742 160.732 92.6904C168.929 94.1972 175.161 96.7309 179.497 100.223C183.832 103.785 186 108.99 186 115.906V117.276C186 120.974 185.323 124.261 184.035 127.275C182.748 130.219 180.852 132.753 178.413 134.876C175.974 136.999 172.994 138.574 169.471 139.739C165.948 140.834 162.019 141.451 157.616 141.451C152.467 141.451 147.996 140.697 144.067 139.259C140.138 137.821 136.886 135.767 134.312 133.164C131.738 130.562 129.705 127.548 128.418 124.056C127.063 120.563 126.386 116.728 126.386 112.619V111.934H141.086C141.086 116.66 142.441 120.426 145.151 123.302C147.861 126.11 152.061 127.548 157.819 127.548C162.29 127.548 165.609 126.59 167.777 124.604C169.945 122.618 171.029 120.289 171.029 117.619C171.029 116.317 170.826 115.153 170.351 113.92C169.877 112.756 169.132 111.729 167.98 110.77C166.897 109.811 165.338 108.99 163.374 108.236C161.409 107.483 158.97 106.867 155.99 106.319C152.061 105.634 148.47 104.744 145.151 103.648C141.899 102.552 139.054 101.114 136.615 99.3332C134.177 97.5526 132.347 95.2927 130.993 92.5535C129.637 89.814 128.96 86.5269 128.96 82.6233V81.9385C128.96 78.7196 129.637 75.7063 130.925 72.9671C132.212 70.2276 134.041 67.8308 136.412 65.7763C138.783 63.7219 141.56 62.1467 144.88 61.051C148.199 59.9552 151.857 59.3389 155.99 59.3389C160.596 59.3389 164.661 60.0237 168.251 61.3249C171.842 62.6261 174.823 64.4067 177.261 66.6666C179.7 68.9266 181.326 71.5976 182.748 74.4736C184.51 77.9666 184.577 85.0887 184.577 85.0887L169.945 84.9518Z" fill="white"/>
</svg>
