<svg width="200" height="200" viewBox="0 0 200 200" fill="none" xmlns="http://www.w3.org/2000/svg">
<path d="M100 200C155.228 200 200 155.228 200 100C200 44.7715 155.228 0 100 0C44.7715 0 0 44.7715 0 100C0 155.228 44.7715 200 100 200Z" fill="white"/>
<path d="M100 0C155.228 0 200 44.7715 200 100C200 155.228 155.228 200 100 200C44.7715 200 0 155.228 0 100C0 44.7715 44.7715 0 100 0ZM111.952 38.6071H98.796L94.669 49.4411H53.3964C51.5047 49.4411 49.785 50.4729 48.8392 52.0206L38.5211 70.1634H115.649C118.229 70.1634 120.722 70.6793 123.13 71.6251C127.687 73.517 133.018 77.73 131.728 87.274C129.493 103.267 113.156 131.556 77.816 131.986L96.045 84.437C96.733 82.459 95.357 80.396 93.293 80.396H68.7876L39.2089 153.138C39.2089 153.138 45.1419 153.826 54.6002 153.826L51.6767 161.479H65.1763C66.2941 161.479 67.2399 160.791 67.6698 159.845L70.2494 153.224C72.227 153.052 74.291 152.88 76.354 152.623L72.915 161.479H86.242C87.36 161.479 88.306 160.791 88.736 159.845L92.605 149.785C114.703 144.798 138.607 133.792 152.709 110.576C180.911 63.9725 151.247 51.8487 130.696 49.785L134.222 40.5847C134.566 39.6389 133.878 38.6071 132.932 38.6071H119.776L115.649 49.4411H109.802L113.242 40.5847C113.586 39.6389 112.898 38.6071 111.952 38.6071Z" fill="#0063CF"/>
</svg>
