<svg width="200" height="200" viewBox="0 0 200 200" fill="none" xmlns="http://www.w3.org/2000/svg">
<path d="M100 200C155.228 200 200 155.228 200 100C200 44.7715 155.228 0 100 0C44.7715 0 0 44.7715 0 100C0 155.228 44.7715 200 100 200Z" fill="white"/>
<path d="M54.1664 20L8 99.9L54.1664 179.8H146.412L147.89 177.192L192.492 99.9L146.325 20H54.1664V20ZM63.0345 30.607H131.371L86.422 44.7786C87.2045 46.0827 87.8131 47.5607 88.1608 49.1257L139.892 32.8675L150.238 83.0332C151.716 82.5985 153.281 82.3376 154.846 82.3376L146.238 40.7792L179.103 97.5526H172.495C172.582 98.335 172.669 99.1175 172.669 99.9C172.669 100.682 172.669 101.465 172.495 102.247H179.103L145.195 160.934L154.672 117.462C153.107 117.375 151.542 117.202 150.064 116.767L138.935 167.976L88.3347 151.022C88.0739 152.5 87.5522 153.978 86.8567 155.369L128.067 169.193H63.0345L66.5122 163.281C65.0342 162.672 63.73 161.977 62.4259 161.02L59.0351 166.933L26.6926 110.855L58.7743 139.198C59.6437 137.894 60.6871 136.764 61.9042 135.72L21.4761 100.074L63.3823 62.9495C62.252 61.8193 61.2957 60.6021 60.6001 59.211L26.4318 89.5539L59.0351 33.0413L63.9039 41.4748C65.0342 40.4314 66.4253 39.562 67.8163 38.9534L63.0345 30.607ZM87.4653 57.646C86.9436 59.124 86.1612 60.4282 85.1178 61.6454L138.848 92.6838C139.457 91.2927 140.326 89.9886 141.283 88.7714L87.4653 57.646ZM70.1638 66.775V132.069C70.8593 131.982 71.5548 131.895 72.3373 131.895C73.2067 131.895 74.0762 131.895 74.8587 132.069V67.1227C74.5109 67.1227 74.0762 67.1227 73.7284 67.1227C72.4243 67.1227 71.294 67.0358 70.1638 66.775ZM138.935 107.116L85.1178 138.155C86.0742 139.372 86.8567 140.763 87.4653 142.241L141.37 111.116C140.413 109.898 139.544 108.594 138.935 107.116Z" fill="#9693C7"/>
<path d="M73.6415 37.5623C65.5558 37.5623 58.8613 44.17 58.8613 52.3425C58.8613 60.4282 65.5558 67.1227 73.6415 67.1227C81.7271 67.1227 88.4217 60.4282 88.4217 52.3425C88.4217 44.17 81.814 37.5623 73.6415 37.5623ZM73.6415 42.2572C79.2927 42.2572 83.8137 46.7782 83.8137 52.4295C83.8137 58.0807 79.2927 62.6018 73.6415 62.6018C67.9902 62.6018 63.4692 58.0807 63.4692 52.4295C63.5562 46.7782 68.0772 42.2572 73.6415 42.2572Z" fill="#5D9FD7"/>
<path d="M72.2504 131.895C63.2953 131.895 55.9922 139.198 55.9922 148.066C55.9922 157.021 63.2953 164.324 72.2504 164.324C81.2054 164.324 88.4216 157.021 88.4216 148.066C88.5086 139.198 81.2054 131.895 72.2504 131.895ZM72.2504 136.503C78.6841 136.503 83.9006 141.719 83.9006 148.153C83.9006 154.587 78.6841 159.803 72.2504 159.803C65.8166 159.803 60.6001 154.674 60.6001 148.153C60.687 141.632 65.8166 136.503 72.2504 136.503Z" fill="#ED6D39"/>
<path d="M154.933 82.3376C145.282 82.3376 137.37 90.2494 137.37 99.9C137.37 109.551 145.282 117.462 154.933 117.462C164.583 117.462 172.495 109.551 172.495 99.9C172.495 90.2494 164.67 82.3376 154.933 82.3376ZM154.933 86.9456C162.149 86.9456 167.887 92.6838 167.887 99.9C167.887 107.116 162.149 112.854 154.933 112.854C147.716 112.854 141.978 107.116 141.978 99.9C141.978 92.6838 147.716 86.9456 154.933 86.9456Z" fill="#E63673"/>
</svg>
