<svg width="256" height="256" viewBox="0 0 256 256" fill="none" xmlns="http://www.w3.org/2000/svg">
<g clip-path="url(#clip0)">
<path d="M30.72 0H225.28C233.427 0 241.241 3.23656 247.002 8.99768C252.763 14.7588 256 22.5725 256 30.72V225.28C256 233.427 252.763 241.241 247.002 247.002C241.241 252.763 233.427 256 225.28 256H30.72C22.5725 256 14.7588 252.763 8.99768 247.002C3.23656 241.241 0 233.427 0 225.28L0 30.72C0 22.5725 3.23656 14.7588 8.99768 8.99768C14.7588 3.23656 22.5725 0 30.72 0V0Z" fill="white"/>
<path d="M225.281 256H30.72C26.6849 256.003 22.6888 255.211 18.9602 253.669C15.2316 252.126 11.8437 249.864 8.99042 247.01C6.13714 244.157 3.87443 240.769 2.33175 237.041C0.789082 233.312 -0.0032778 229.316 1.01911e-05 225.281V30.72C-0.00327762 26.6849 0.789075 22.6887 2.33173 18.9601C3.87439 15.2315 6.13709 11.8436 8.99036 8.99036C11.8436 6.13709 15.2315 3.87439 18.9601 2.33173C22.6887 0.789075 26.6849 -0.00327762 30.72 1.019e-05H225.28C229.315 -0.00327762 233.311 0.789075 237.04 2.33173C240.769 3.87439 244.156 6.13709 247.01 8.99036C249.863 11.8436 252.126 15.2315 253.668 18.9601C255.211 22.6887 256.003 26.6849 256 30.72V225.28C256.003 229.315 255.211 233.311 253.669 237.04C252.126 240.768 249.864 244.156 247.01 247.01C244.157 249.863 240.769 252.126 237.041 253.668C233.312 255.211 229.316 256.003 225.281 256ZM37.12 10.24C33.5893 10.2371 30.0926 10.9304 26.8301 12.2802C23.5675 13.6301 20.6031 15.6099 18.1065 18.1065C15.6099 20.6031 13.6301 23.5675 12.2802 26.8301C10.9304 30.0926 10.2371 33.5893 10.24 37.12V218.88C10.237 222.411 10.9302 225.908 12.28 229.17C13.6297 232.433 15.6096 235.397 18.1062 237.894C20.6029 240.39 23.5673 242.37 26.8299 243.72C30.0925 245.07 33.5892 245.763 37.12 245.76H218.88C222.411 245.763 225.908 245.07 229.17 243.72C232.433 242.37 235.397 240.39 237.894 237.894C240.39 235.397 242.37 232.433 243.72 229.17C245.07 225.908 245.763 222.411 245.76 218.88V37.12C245.763 33.5892 245.07 30.0925 243.72 26.8299C242.37 23.5673 240.39 20.6029 237.894 18.1062C235.397 15.6096 232.433 13.6297 229.17 12.28C225.908 10.9302 222.411 10.237 218.88 10.24H37.12Z" fill="url(#paint0_linear)"/>
<path d="M217.601 243.2H38.4008C35.0381 243.203 31.7079 242.543 28.6007 241.257C25.4934 239.972 22.6702 238.086 20.2924 235.708C17.9146 233.33 16.0291 230.507 14.7436 227.4C13.4581 224.293 12.7979 220.962 12.8008 217.6V38.3998C12.7979 35.0372 13.4581 31.7069 14.7436 28.5997C16.0291 25.4925 17.9146 22.6692 20.2924 20.2914C22.6702 17.9137 25.4934 16.0281 28.6007 14.7426C31.7079 13.4571 35.0381 12.7969 38.4008 12.7998H217.601C220.963 12.7969 224.294 13.4571 227.401 14.7426C230.508 16.0281 233.331 17.9137 235.709 20.2914C238.087 22.6692 239.973 25.4925 241.258 28.5997C242.544 31.7069 243.204 35.0372 243.201 38.3998V217.6C243.204 220.962 242.544 224.293 241.258 227.4C239.973 230.507 238.087 233.33 235.709 235.708C233.331 238.086 230.508 239.972 227.401 241.257C224.294 242.543 220.963 243.203 217.601 243.2V243.2ZM40.9598 21.7598C35.8676 21.7598 30.984 23.7827 27.3833 27.3834C23.7826 30.9841 21.7598 35.8677 21.7598 40.9598V215.041C21.7598 220.133 23.7826 225.017 27.3833 228.617C30.984 232.218 35.8676 234.241 40.9598 234.241H215.042C220.134 234.241 225.018 232.218 228.618 228.617C232.219 225.017 234.242 220.133 234.242 215.041V40.9588C234.242 35.8667 232.219 30.9831 228.618 27.3824C225.018 23.7817 220.134 21.7588 215.042 21.7588L40.9598 21.7598Z" fill="url(#paint1_linear)"/>
<path d="M128.5 216C176.825 216 216 176.825 216 128.5C216 80.1751 176.825 41 128.5 41C80.1751 41 41 80.1751 41 128.5C41 176.825 80.1751 216 128.5 216Z" fill="white"/>
<path fill-rule="evenodd" clip-rule="evenodd" d="M121.129 41.2994C83.5915 44.3457 52.6127 70.7074 43.2748 107.55C40.8502 117.119 40.2627 133.694 42.0034 143.425C48.5836 180.197 75.9806 207.769 112.959 214.835C120.919 216.357 135.56 216.393 143.833 214.912C161.11 211.817 176.425 204.004 189.097 191.819C202.268 179.154 210.691 164.031 214.402 146.385C216.36 137.075 216.547 121.493 214.806 112.58C206.087 67.9409 166.262 37.6365 121.129 41.2994ZM83.6314 101.109V116.32L87.1561 115.852C99.6162 114.201 109.721 105.301 112.971 93.1162C113.476 91.226 113.892 88.8293 113.896 87.7893L113.904 85.8991H83.6314V101.109ZM134.308 87.2566C123.865 90.5896 115.97 99.5175 113.933 110.3C113.406 113.096 113.22 124.384 113.357 145.354L113.56 176.285L128.525 176.471L143.489 176.655V116.142H173.074V85.8991L155.702 85.9362C140.703 85.9679 137.779 86.1486 134.308 87.2566Z" fill="#1A5AFF"/>
</g>
<defs>
<linearGradient id="paint0_linear" x1="247.552" y1="249.088" x2="0" y2="0" gradientUnits="userSpaceOnUse">
<stop stop-color="#2ABEF7"/>
<stop offset="1" stop-color="#2C6DEF"/>
</linearGradient>
<linearGradient id="paint1_linear" x1="233.985" y1="18.7902" x2="18.7912" y2="234.905" gradientUnits="userSpaceOnUse">
<stop stop-color="#B6509E"/>
<stop offset="1" stop-color="#2EBAC6"/>
</linearGradient>
<clipPath id="clip0">
<rect width="256" height="256" fill="white"/>
</clipPath>
</defs>
</svg>
