<svg width="200" height="200" viewBox="0 0 200 200" fill="none" xmlns="http://www.w3.org/2000/svg">
<path d="M100 200C155.228 200 200 155.228 200 100C200 44.7715 155.228 0 100 0C44.7715 0 0 44.7715 0 100C0 155.228 44.7715 200 100 200Z" fill="white"/>
<path d="M137.35 54.0481L125.429 59.6812C125.369 59.7097 125.315 59.7498 125.269 59.7992C125.224 59.8487 125.19 59.9065 125.167 59.9694C125.144 60.0322 125.135 60.0989 125.138 60.1656C125.141 60.2323 125.158 60.2977 125.186 60.358L143.316 98.4217C150.052 112.582 148.248 123.323 138.006 128.177C129.717 132.095 122.562 129.362 116.98 119.817L95.5145 74.7457C86.81 56.4752 74.9541 51.6326 60.89 58.278C51.7405 62.6013 46.4334 70.329 46.5389 80.1366C46.5408 80.2525 46.5031 80.3656 46.4317 80.4571C46.3601 80.5486 46.2595 80.6131 46.1462 80.6397C46.0328 80.6662 45.914 80.6534 45.8091 80.6033C45.7041 80.5533 45.6194 80.4689 45.5692 80.3642L40.8833 70.5303C40.8547 70.4699 40.8144 70.4158 40.7648 70.371C40.7149 70.3262 40.6569 70.2917 40.5936 70.2694C40.5304 70.2472 40.4635 70.2376 40.3965 70.2413C40.3296 70.2451 40.2642 70.262 40.2037 70.2911L28.2864 75.9068C28.1669 75.9642 28.0748 76.0661 28.0299 76.1904C27.985 76.3148 27.9909 76.4518 28.0462 76.5719L60.9661 145.71C61.0246 145.831 61.1286 145.925 61.2558 145.97C61.3832 146.016 61.5232 146.009 61.6457 145.952L73.5659 140.319C73.6266 140.29 73.681 140.25 73.7262 140.201C73.7711 140.151 73.8059 140.094 73.8284 140.031C73.8511 139.968 73.861 139.901 73.8575 139.834C73.8543 139.768 73.8378 139.702 73.8091 139.642L56.1863 102.643C49.0079 87.5667 50.3697 76.6652 61.3763 71.4638C69.8229 67.4731 76.3893 70.1569 82.2852 80.3819C82.2931 80.3937 82.3 80.4065 82.3057 80.4198L103.56 125.053C111.761 142.265 124.498 148.175 137.95 141.818C148.347 136.906 152.659 129.511 152.407 119.784C152.404 119.668 152.441 119.555 152.513 119.463C152.584 119.371 152.685 119.306 152.798 119.279C152.912 119.252 153.031 119.264 153.136 119.315C153.241 119.365 153.326 119.449 153.376 119.554L158.109 129.493C158.138 129.553 158.178 129.608 158.228 129.653C158.277 129.697 158.335 129.732 158.399 129.755C158.462 129.777 158.529 129.787 158.596 129.784C158.662 129.78 158.728 129.764 158.789 129.735L170.709 124.102C170.77 124.074 170.824 124.033 170.869 123.984C170.914 123.935 170.949 123.876 170.971 123.814C170.993 123.751 171.003 123.684 170.999 123.617C170.996 123.551 170.978 123.485 170.949 123.425L138.029 54.2902C137.971 54.1688 137.867 54.0752 137.74 54.0298C137.612 53.9845 137.472 53.991 137.35 54.0481Z" fill="#1E65F3"/>
</svg>
