<?xml version="1.0" encoding="utf-8"?>
<!-- Generator: Adobe Illustrator 25.2.0, SVG Export Plug-In . SVG Version: 6.00 Build 0)  -->
<svg version="1.1" id="Layer_1" xmlns="http://www.w3.org/2000/svg" xmlns:xlink="http://www.w3.org/1999/xlink" x="0px" y="0px"
	 width="128px" height="128px" viewBox="0 0 128 128" style="enable-background:new 0 0 128 128;" xml:space="preserve">
<style type="text/css">
	.st0{fill:#FFFFFF;}
</style>
<circle cx="64" cy="64" r="63"/>
<g>
	<path class="st0" d="M94.7,40.8c-1.2-0.9-2.5-2.2-5-2.5c-2.3-0.3-4.7,1.3-6.4,2.3s-4.7,4.1-5.9,5c-1.3,0.9-4.5,1.8-9.7,4.9
		c-5.2,3.1-25.6,16.2-25.6,16.2l5.3,0.1L23.7,79.1H26l-3.4,2.6c0,0,3,0.8,5.5-0.8v0.7c0,0,28.2-11.1,33.7-8.2l-3.3,1
		c0.3,0,5.7,0.4,5.7,0.4s0.2,3.3,3.4,5.5c3.2,2.1,3.3,3.3,3.3,3.3s-1.7,0.7-1.7,1.6c0,0,2.5-0.8,4.8-0.7s4.3,0.7,4.3,0.7
		s-0.2-0.9-2.4-1.6c-2.3-0.6-4.5-3.1-5.5-4.4c-1.1-1.3-1.8-3.7-0.9-6.1c0.8-2,3.5-3.1,9.1-6c6.6-3.4,8.1-5.9,9-7.9
		c0.9-2,2.3-5.9,3.1-7.7c1-2.4,2.2-3.6,3.2-4.4c1-0.8,5.4-2.4,5.4-2.4S95.8,41.7,94.7,40.8z"/>
</g>
</svg>
