<svg clip-rule="evenodd" fill-rule="evenodd" stroke-linejoin="round" stroke-miterlimit="2" viewBox="0 0 560 400" xmlns="http://www.w3.org/2000/svg"><g fill-rule="nonzero" transform="matrix(.721925 0 0 .721925 145 72.9831)"><path d="m85 309c22.395 25.513 54.111 41.01 88 43 20.046-1.064 38.976-9.636 53-24 27.671-23.7 56.721-45.738 87-66l17-7c7-3 19-10 30-23 12-16 14-33 14-39-1.33-18.922-7.531-37.182-18-53-55.466 98.833-157.843 162.677-271 169z" fill="#0293d6"/><path d="m123 25c15.08-15.928 36.066-24.974 58-25 13.891-.93 27.59 3.756 38 13 28.68 20.319 62.855 31.478 98 32 9 1 27 4 39 19 9 12 10 25 10 31-.805 15.452-4.185 30.661-10 45z" fill="#ebe638"/><path d="m85 309c-9-1-21-4-35-10s-31-13-42-32c-7-12-8-24-8-32 .244-21.215 5.378-42.091 15-61 9.574-23.373 15.964-47.926 19-73l5-20c3-10 5-20 12-30l11-12c18.165-11.42 39.673-16.357 61-14-57.908 82.838-72.093 188.852-38 284z" fill="#bad147"/><path d="m123 25c-1 0 54 3 88 15l28 12c-11-1-81-4-134 49-67 68-45 161-44 166-15.522-19.529-23.353-44.09-22-69 2.66-66.823 33.133-129.583 84-173z" fill="#78b650"/><path d="m257 272c38.6-70.167 31.492-157.04-18-220 28.961 4.842 55.612 18.869 76 40 12 10 27 25 41 48-19.771 52.516-54.121 98.316-99 132z" fill="#2f8260"/><path d="m289 96c-16-27-39-39-49-44-8-2-83-14-140 41-46 44-49 101-49 112 .212 37.68 12.872 74.253 36 104 29.726 5.724 60.274 5.724 90 0 15-3 50-9 80-35 4-4 48-45 51-110 0-11 0-39-19-68zm-36 145c-18.766 20.414-45.271 32.033-73 32-6 0-46-1-74-34-4-5-24-29-23-65 2-48 40-76 48-82 7-5 24-16 49-17 6-1 27-2 48 10 46 25 48 85 48 89 0 11 0 41-23 67z" fill="#085229"/></g></svg>